<?xml version="1.0" encoding="utf-8"?>
<!-- Generator: Adobe Illustrator 25.4.1, SVG Export Plug-In . SVG Version: 6.00 Build 0)  -->
<svg version="1.1" id="Layer_1" xmlns="http://www.w3.org/2000/svg" xmlns:xlink="http://www.w3.org/1999/xlink" x="0px" y="0px"
	 viewBox="0 0 200 200" style="enable-background:new 0 0 200 200;" xml:space="preserve">
<style type="text/css">
	.st0{fill:#FFFFFF;}
</style>
<rect x="-23.4" y="-16.8" width="247.7" height="239.5"/>
<g>
	<path class="st0" d="M94.8,173.8l-0.2-1.4c-2.9-26.9-4.9-47.2-5.7-58.7l1.3-26.9c0.2-2.9,0.4-6.2,0.3-8.8v-0.9h0.9
		c13.8-0.6,38.6-1.6,38.6-1.6c0.2-0.1,0.8-0.2,1.2-0.7c0.4-0.5,0.7-1.1,0.7-1.8c0-0.7-0.3-1.3-0.8-1.7c-0.5-0.4-1.1-0.7-1.7-0.7
		c-0.4,0-33.5-1-43.4-0.8c0.8,0.8,1.2,1.9,1.2,3c0.1,1.3-0.4,2.5-1.3,3.4c-0.6,0.6-1.3,1.1-2.1,1.3l-0.1,0.1l-0.5,0.1l-14.8,0.5
		c-0.3,3.5-0.3,7.8-0.3,9.9c0,1.1,0.8,18.2,1.2,27c0,26.2,0,59,0,59v0.3c0,1.8,1.4,3.2,3.1,3.2c1.7,0,3.1-1.4,3.1-3.1l1.3-43.5
		l0.2-0.2c0.1-0.1,0.8-0.8,1.9-1v-0.1h0.9c1.7,0,2.7,1,2.9,1.1l0.2,0.2v0.3l5.5,43.7c0.3,1.5,1.5,2.6,3.1,2.6l0.5,0h0.1
		c0.4,0,0.8-0.1,1.2-0.4c1-0.6,1.6-1.6,1.6-2.7l-0.1-0.5V173.8z"/>
	<path class="st0" d="M84.5,74.9c0.9-1,0.9-2.6-0.1-3.5c-0.5-0.4-1-0.7-1.7-0.7h-0.4L64,70h-0.2c-0.1,0-0.2,0-0.4,0.1l-0.2,0.1
		c-1.4,0.4-2.3,1.6-2.3,3c0,1.6,1.2,2.9,2.8,3.1H64h0.2l19.1-0.7C83.7,75.5,84.1,75.3,84.5,74.9z"/>
	<path class="st0" d="M78.3,65.5c6,0.9,11.2-3.1,12.2-8.8c0.9-5.8-3.1-11.2-8.8-12.2c-0.6-0.2-1.2-0.2-1.7-0.2
		c-5.3,0-9.7,3.8-10.5,9C68.6,59.1,72.5,64.5,78.3,65.5z"/>
	<path class="st0" d="M125.8,22.8c7.4,6,12.6,26.4,12.6,51c0,20.8-3.7,38.7-9.4,47.3c5.8-7.3,10.1-26.2,10.1-47.8
		C139.2,47.9,133.2,26.1,125.8,22.8z"/>
	<g>
		<path class="st0" d="M78.3,65.5c6,0.9,11.2-3.1,12.2-8.8c0.9-5.8-3.1-11.2-8.8-12.2c-0.6-0.2-1.2-0.2-1.7-0.2
			c-5.3,0-9.7,3.8-10.5,9C68.6,59.1,72.5,64.5,78.3,65.5z"/>
		<path class="st0" d="M94.8,173.8l-0.2-1.4c-2.9-26.9-4.9-47.2-5.7-58.7l1.3-26.9c0.2-2.9,0.4-6.2,0.3-8.8v-0.9h0.9
			c13.8-0.6,38.6-1.6,38.6-1.6c0.2-0.1,0.8-0.2,1.2-0.7c0.4-0.5,0.7-1.1,0.7-1.8c0-0.7-0.3-1.3-0.8-1.7c-0.5-0.4-1.1-0.7-1.7-0.7
			c-0.4,0-33.5-1-43.4-0.8c0.8,0.8,1.2,1.9,1.2,3c0.1,1.3-0.4,2.5-1.3,3.4c-0.6,0.6-1.3,1.1-2.1,1.3l-0.1,0.1l-0.5,0.1l-14.8,0.5
			c-0.3,3.5-0.3,7.8-0.3,9.9c0,1.1,0.8,18.2,1.2,27c0,26.2,0,59,0,59v0.3c0,1.8,1.4,3.2,3.1,3.2c1.7,0,3.1-1.4,3.1-3.1l1.3-43.5
			l0.2-0.2c0.1-0.1,0.8-0.8,1.9-1v-0.1h0.9c1.7,0,2.7,1,2.9,1.1l0.2,0.2v0.3l5.5,43.7c0.3,1.5,1.5,2.6,3.1,2.6l0.5,0h0.1
			c0.4,0,0.8-0.1,1.2-0.4c1-0.6,1.6-1.6,1.6-2.7l-0.1-0.5V173.8z"/>
		<path class="st0" d="M84.5,74.9c0.9-1,0.9-2.6-0.1-3.5c-0.5-0.4-1-0.7-1.7-0.7h-0.4L64,70h-0.2c-0.1,0-0.2,0-0.4,0.1l-0.2,0.1
			c-1.4,0.4-2.3,1.6-2.3,3c0,1.6,1.2,2.9,2.8,3.1H64h0.2l19.1-0.7C83.7,75.5,84.1,75.3,84.5,74.9z"/>
		<path class="st0" d="M125.8,22.8c7.4,6,12.6,26.4,12.6,51c0,20.8-3.7,38.7-9.4,47.3c5.8-7.3,10.1-26.2,10.1-47.8
			C139.2,47.9,133.2,26.1,125.8,22.8z"/>
		<path class="st0" d="M78.1,67.1c0.6,0.1,1.3,0.2,1.9,0.2c6.1,0,11.3-4.4,12.4-10.5c1.1-6.7-3.5-13.1-10.3-14.2
			c-0.7-0.2-1.3-0.2-2-0.2c-6.2,0-11.3,4.4-12.3,10.5C66.7,59.7,71.3,66,78.1,67.1z M69.5,53.3c0.8-5.2,5.2-9,10.5-9
			c0.5,0,1.1,0,1.7,0.2c5.7,1,9.7,6.4,8.8,12.2c-1,5.7-6.2,9.7-12.2,8.8C72.5,64.5,68.6,59.1,69.5,53.3z"/>
		<path class="st0" d="M91.1,113.8L92.4,87c0.1-2.6,0.3-5.6,0.3-8.1c13.9-0.6,37.7-1.6,37.8-1.6c0.9-0.2,1.7-0.6,2.3-1.3
			c0.7-0.9,1.1-2,1.1-3.1c-0.1-1.2-0.6-2.2-1.4-3c-0.8-0.7-1.9-1.1-3-1.1c-0.2,0-33.8-1-43.5-0.8c-1-0.3-2.2-0.5-3.5-0.5
			c-0.8,0-2.1-0.1-3.4-0.1c-1.9,0-3.3,0.2-4.3,0.4c-0.3,0.1-0.7,0.2-1,0.3l-1.2,0.4l-8.5-0.3h-0.4c-0.3,0-0.5,0-0.9,0.1l-0.2,0.1
			C60.5,69,59,71,59,73.2c0,2.5,1.9,4.5,4.4,4.8h0.5l3-0.1c-0.3,3.7-0.3,7.9-0.3,10.3c0,1.5,1.1,26.1,1.2,27.1c0,26.2,0,58.9,0,58.9
			v0.3c0,2.7,2.2,4.9,4.9,4.9s4.9-2.2,4.9-4.9l1.2-42.7c0.3-0.2,0.7-0.4,1.3-0.4h0.2c0.6,0,1,0.2,1.2,0.4L87,175l0.1,0.4
			c0.4,2.3,2.4,4,4.8,4h0.3c0.8,0,1.5-0.2,2.4-0.6c1.5-0.9,2.4-2.5,2.4-4.2c0-0.1,0-0.3,0-0.5c0-0.1-0.1-0.6-0.2-1.7
			C94,145.5,92,125.2,91.1,113.8z M64.2,76.3H64h-0.3c-1.6-0.2-2.8-1.5-2.8-3.1c0-1.4,0.9-2.6,2.3-3l0.2-0.1
			c0.2-0.1,0.3-0.1,0.4-0.1H64l18.3,0.7h0.4c0.7,0,1.2,0.3,1.7,0.7c1,0.9,1,2.5,0.1,3.5c-0.4,0.4-0.8,0.6-1.2,0.7L64.2,76.3z
			 M93.3,177.2c-0.4,0.3-0.8,0.4-1.2,0.4H92l-0.5,0c-1.6,0-2.8-1.1-3.1-2.6l-5.5-43.7V131l-0.2-0.2c-0.2-0.1-1.2-1.1-2.9-1.1h-0.9
			v0.1c-1.1,0.2-1.8,0.9-1.9,1l-0.2,0.2l-1.3,43.5c0,1.7-1.4,3.1-3.1,3.1c-1.7,0-3.1-1.4-3.1-3.2v-0.3c0,0,0-32.8,0-59
			c-0.4-8.8-1.2-25.9-1.2-27c0-2.1,0-6.4,0.3-9.9l14.8-0.5l0.5-0.1l0.1-0.1c0.8-0.2,1.5-0.7,2.1-1.3c0.9-0.9,1.4-2.1,1.3-3.4
			c0-1.1-0.4-2.2-1.2-3c9.9-0.2,43,0.8,43.4,0.8c0.6,0,1.2,0.3,1.7,0.7c0.5,0.4,0.8,1,0.8,1.7c0,0.7-0.3,1.3-0.7,1.8
			c-0.4,0.5-1,0.6-1.2,0.7c0,0-24.8,1-38.6,1.6h-0.9V78c0.1,2.6-0.1,5.9-0.3,8.8l-1.3,26.9c0.8,11.5,2.8,31.8,5.7,58.7l0.2,1.4v0.2
			l0.1,0.5C94.9,175.6,94.3,176.6,93.3,177.2z"/>
		<path class="st0" d="M123.9,20.5c-0.9,0-1.7,0.2-2.6,0.6l-3.5,1.5l3.8,0.2c7.3,0.5,15.1,21,15.1,51c0,25.5-5.8,47.3-13.5,50.6
			l-3.1,1.4l3.5,0.3h0.2c9.6,0,17.2-23.1,17.2-52.8C141,43.7,133.5,20.5,123.9,20.5z M138.4,73.8c0-24.6-5.2-45-12.6-51
			c7.4,3.3,13.4,25.1,13.3,50.5c0,21.6-4.3,40.5-10.1,47.8C134.7,112.5,138.4,94.6,138.4,73.8z"/>
	</g>
</g>
</svg>
