<?xml version="1.0" encoding="utf-8"?>
<!-- Generator: Adobe Illustrator 25.4.1, SVG Export Plug-In . SVG Version: 6.00 Build 0)  -->
<svg version="1.1" id="Layer_1" xmlns="http://www.w3.org/2000/svg" xmlns:xlink="http://www.w3.org/1999/xlink" x="0px" y="0px"
	 viewBox="0 0 200 200" style="enable-background:new 0 0 200 200;" xml:space="preserve">
<style type="text/css">
	.st0{fill:#FFFFFF;}
</style>
<g>
	<rect x="-16.4" y="-13.4" width="239.3" height="231.8"/>
	<path class="st0" d="M97.5,162.4c0,1.7,1.1,3.1,2.5,3.1s2.6-1.4,2.6-3.1v-37.7l0.7-0.2c3.2-0.8,5.3-4.1,6.7-10.6
		c1.4-6.6,2.2-13.6,2.3-20.8c0.2-9.9-1.6-14.2-4.3-17.7l-0.6-0.8l0.8-0.6c0.4-0.2,0.6-0.5,0.8-0.8l0.2-0.2L140,36.2
		c0.6-0.7,1-1.5,1-2.4c0-1.8-1.4-3.3-3.2-3.3c-1,0-1.9,0.5-2.5,1.4L135,32l-30.8,36.8c-0.5,0.5-0.8,1.1-0.9,1.8l-0.2,0.9l-0.9-0.1
		c-0.5-0.1-1.1-0.1-1.7,0l-0.8,0.1l-0.2-0.8c-0.1-0.7-0.4-1.3-0.9-1.7L68.1,32.2l-0.5-0.6c-0.6-0.7-1.5-1.1-2.4-1.1
		c-1.8,0-3.2,1.5-3.2,3.3c0,0.9,0.3,1.7,0.9,2.4L93.8,73l0.2,0.2c0.1,0.2,0.2,0.3,0.4,0.4l0.6,0.6l-0.5,0.7c-1.4,2-1.7,4.2-0.8,6.7
		c0.4,1.2,0.7,1.9,1,2.5c0.8,1.8,1.1,2.6,1.4,8.9c0.3,5.9-1.6,13.3-2.9,18.2c-0.4,1.4-0.7,2.6-0.9,3.5c-0.9,4,0.9,7.4,4.6,9.1
		l0.6,0.3V162.4z"/>
	<rect x="18.9" y="168" class="st0" width="162.3" height="1.6"/>
	<path class="st0" d="M90.8,127.6c0.1-6.3-4.8-11.4-10.9-11.4c-6,0-10.9,5.1-10.9,11.4S73.9,139,79.9,139S90.8,133.9,90.8,127.6z"/>
	<path class="st0" d="M103,166c0.8-0.9,1.3-2.2,1.2-3.6v-36.2c3.6-1.3,5.9-5,7.4-11.9c1.5-6.7,2.3-13.8,2.4-21.2
		c0.2-9.8-1.5-14.5-4.1-18.2c0.1-0.1,0.2-0.2,0.3-0.3l31-37c1-1,1.5-2.4,1.5-3.8c0-2.9-2.2-5.3-5-5.3c-1.4,0-2.7,0.6-3.7,1.7
		l-31.1,37.3c-0.6,0.5-1,1.2-1.2,1.9c-0.2,0-0.3,0-0.5,0c-0.2-0.7-0.6-1.4-1.1-1.9l-31-37.1c-1-1.2-2.4-1.9-3.9-1.9
		c-2.7,0-5,2.4-5,5.3c0,1.4,0.5,2.7,1.4,3.7l30.8,36.8c-1.4,2.4-1.6,5-0.6,7.9c0.5,1.3,0.8,2.1,1.1,2.7c0.7,1.6,1,2.3,1.3,8.2
		c0.2,5.5-1.7,12.8-2.9,17.6c-0.4,1.4-0.7,2.7-0.9,3.6c-1,4.7,1,8.9,5.2,11v37.1c0,1.4,0.5,2.7,1.4,3.6H17v5.5h166V166H103z"/>
</g>
</svg>
