<?xml version="1.0" encoding="utf-8"?>
<!-- Generator: Adobe Illustrator 25.4.1, SVG Export Plug-In . SVG Version: 6.00 Build 0)  -->
<svg version="1.1" id="Layer_1" xmlns="http://www.w3.org/2000/svg" xmlns:xlink="http://www.w3.org/1999/xlink" x="0px" y="0px"
	 viewBox="0 0 200 200" style="enable-background:new 0 0 200 200;" xml:space="preserve">
<style type="text/css">
	.st0{fill:#FFFFFF;}
</style>
<rect x="-25.5" y="-19.9" width="241.5" height="245.6"/>
<g>
	<path class="st0" d="M151.7,105.5c0-0.1-0.1-0.3-0.2-0.4l-0.2-0.3c-0.2-0.3-0.4-0.6-0.7-0.9c0-0.1-0.1-0.1-0.3-0.3
		c-1-0.8-2.1-1.2-3.5-1.2c-0.3,0-1.5,0-2.8,0c-1.9,0-3.4-0.1-4.5-0.2c-15.4-2.1-19.3-10.3-19.8-17.1l1.1-1c2.3-2.3,3.5-5.8,3.2-9.6
		c-0.1-1.5-0.3-2.9-0.8-4.3c2.5,1.9,5.6,3,8.9,3c2.6,0,5.1-0.7,7.5-2c7.1-4.2,9.5-13.3,5.5-20.4c-2.7-4.6-7.6-7.5-12.9-7.5
		c-2.6,0-5.2,0.7-7.5,2c-3.5,2.1-5.9,5.3-6.9,9.1c-0.9,3-0.7,6.2,0.4,9.1c-1.4-0.9-2.9-1.6-4.5-2.1c-0.6-1.8-1.5-4-2.2-5.9
		c-1-2.5-2-5.1-2.1-5.5c-3.6-9.9-8.8-15.1-16-16.1c-5.2-0.7-12.7-1-17.6-1c-6.8,0-7.7,0.4-8,0.6c-1.3,0.5-2.3,1.6-2.9,2.9
		c-0.5,1.3-0.4,2.7,0.1,3.9c0.6,1.2,1.6,2.2,2.9,2.7c0.9,0.3,1.8,0.4,2.7,0.3h0.3c0.4,0,1.5-0.1,3-0.1c4.2,0,18.2,0.4,21.8,5.4
		c0.7,1.5,2.8,9,4.5,15.5l-20,24c-2.9,2.9-4.2,10.4-4.9,14.4c-0.1,0.7-0.2,1.2-0.3,1.6c-2.4,15.4-4.1,18.2-5.2,20.2
		c-0.2,0.3-0.3,0.5-0.4,0.7c-1.8,3-15,22-20.6,30.1c-0.2,0.2-0.3,0.4-0.4,0.6l-0.3,0.2v0.4c-0.2,0.3-0.3,0.6-0.3,0.9l-0.1,0.3
		c-0.1,0.4-0.2,0.9-0.2,1.4c0,3.3,2.7,5.9,5.9,5.9c0.4,0,1,0,1.5-0.2h0.3l0.2-0.2c0.8-0.3,1.4-0.7,1.9-1.1
		c5.2-3.7,11.2-10.9,16-16.8l1.7-2.1c8.3-10.2,13.5-22,15.1-34.1l0.2-1.6c0.1,0,0.2,0,0.3,0c0.8,1.1,1.7,2.2,2.5,3.1
		c0.4,0.6,1,1.1,1.4,1.7c1.8,2.1,5.2,5.1,8.4,8.2c3.9,3.6,7.8,7.3,8.8,8.7c0.6,1.6-5.9,10.3-9.8,15.5c-3.4,4.5-6.6,8.9-8.2,11.7
		c-0.4,0.6-1,2.2-1,3.1c0,3.3,2.6,5.9,5.9,5.9c0.8,0,1.6-0.2,2.3-0.2c0.7-0.3,1.4-0.8,1.8-1.2c3-2.3,20-20.4,22.5-29.4
		c1-3.9-0.3-8.9-3.9-14.9c-4.7-7.7-11-14.7-18.4-20.2l6.7-6.2c3.4,7.5,10.2,16.1,24,18c2.3,0.4,5.1,0.7,7.6,0.7
		c1.7,0,4.2-0.1,6.4-0.8c2.6-0.3,4.5-2.5,4.5-5.1C152.2,106.9,152.1,106.1,151.7,105.5z"/>
</g>
</svg>
