<?xml version="1.0" encoding="utf-8"?>
<!-- Generator: Adobe Illustrator 25.4.1, SVG Export Plug-In . SVG Version: 6.00 Build 0)  -->
<svg version="1.1" id="Layer_1" xmlns="http://www.w3.org/2000/svg" xmlns:xlink="http://www.w3.org/1999/xlink" x="0px" y="0px"
	 viewBox="0 0 200 200" style="enable-background:new 0 0 200 200;" xml:space="preserve">
<style type="text/css">
	.st0{fill:#FFFFFF;}
</style>
<g>
	<path d="M76,48.1c3.8-3,5.5-7.7,3.8-10.7c-0.8-1.3-2.2-2.1-4-2.1s-3.9,0.8-5.7,2.2c-3.8,3-5.5,7.7-3.8,10.7
		C67.9,50.9,72.4,50.9,76,48.1z"/>
	<path d="M-33.1-7v236.3h266.2V-7H-33.1z M62.8,24.7l2.2,4.4c0.5,0.1,0.9,0.3,1.2,0.7c0.4,0.5,0.6,1,0.6,1.6c0,0.6-0.3,1.2-0.7,1.6
		c-0.5,0.5-1,0.7-1.6,0.7c-0.7,0-1.3-0.3-1.7-0.8c-0.3-0.3-0.5-0.8-0.6-1.3L58.1,29L62.8,24.7z M150.2,96.9c-0.7,0-1.4-0.2-2.1-0.6
		c-0.5-0.3-1-0.8-1-0.8c-1.9-1.5-3.2-2.5-3.8-2.9c-7.7-5.4-15.7-8.1-23.5-8.1c-4.8,0-8.1,1-9.6,1.6c0.2,0.4,0.3,0.8,0.4,0.9l0.1,0.2
		v0.1c0.2,1,0.3,1.9,0.3,2.8l-0.9,27.8c0,0.2-0.4,23.1-4.1,30.6c5.9,3.1,24.1,17.7,24.9,18.4l0.2,0.2c1.1,0.9,1.7,2.2,1.7,3.6
		c0,2.3-2.1,4.4-4.8,4.4c-0.7,0-1.5-0.2-2.1-0.5l-0.2-0.1c-1-0.7-25.5-16-28.1-18.4c-2.6-2.1-3.2-6-3.2-8.9c0-3.7,1.2-9.7,2.8-15.6
		c-0.3,0-0.6-0.1-0.9-0.1c-6.8,10.5-31.7,38.8-36.6,40.8c-3.4,2.1-7.3-0.4-7.4-4c0-1,0.3-1.9,0.8-2.7c1.8-3.1,29.7-38.6,33.7-42.4
		c0.3-2.3-0.5-20.8-1.1-32.5c-1.9,0.2-4.3,0-6.4-0.1c-1.1-0.1-2.2-0.2-3-0.2h-0.2c-9.1-1-15.5-4.4-20.4-10.7
		c-2.4-3-6.7-10.5-7.4-12.5c-0.1-0.3-0.2-0.6-0.3-0.8c-0.1,0-0.2,0-0.3,0c-0.6,0-1.1-0.3-1.5-0.7c-0.4-0.5-0.6-1.2-0.5-1.9
		c0.4-1.5,4.6-5.3,15.4-14.1c0.6-0.5,1.1-0.9,1.5-1.2c0-0.1,0-0.2,0-0.3c-1-4.1,1.2-9.5,5.4-12.9c2.5-2.1,5.3-3.2,8.1-3.2
		c2.8,0,5.1,1.2,6.4,3.3c1.7,2.8,1.7,6.6-0.2,10.4c-1,2-2.4,3.8-4.1,5.2c-2.5,2.1-5.3,3.2-8,3.2c-2,0-3.7-0.6-5-1.7l-5,4.3
		c-2.2,1.9-4.6,4-6,5.1c0.6,0.3,1.2,0.8,1.6,1.4c0.1,0.2,0.3,0.5,0.3,0.7c0.6,1.2,1.2,2.3,1.7,3.4c2.1,4.2,3.6,7.3,8.6,11
		C69.5,80.1,73,81,77.2,81c2.5,0,5.1-0.3,7.8-0.6c1.4-0.2,2.9-0.3,4.4-0.5c1-1.2,2.2-2,3.5-2.7c-6.3-0.3-11.4-5.6-11.4-12
		c0-6.6,5.4-12,12-12s12,5.4,12,12c0,4.8-2.8,8.9-6.9,10.8c0.5,0,1,0.1,1.5,0.2c0.8,0.2,2.6,0.7,3.7,1.1c2-1,7.2-1.5,11.7-1.5
		c5.9,0,20.8,0.8,30.9,8.5c1.6,1.2,5.3,4.2,6.4,5.3c0.1,0.1,0.5,0.5,0.5,0.5c0.7,0.8,1,1.7,1,2.7C154.3,95.1,152.4,96.9,150.2,96.9z
		"/>
	<path class="st0" d="M152.8,89.6c-1.1-1.1-4.8-4.1-6.4-5.3c-10.1-7.7-25-8.5-30.9-8.5c-4.5,0-9.7,0.5-11.7,1.5
		c-1.1-0.4-2.9-0.9-3.7-1.1c-0.5-0.1-1-0.1-1.5-0.2c4.1-1.9,6.9-6.1,6.9-10.8c0-6.6-5.4-12-12-12s-12,5.4-12,12
		c0,6.4,5.1,11.6,11.4,12c-1.3,0.7-2.5,1.6-3.5,2.7c-1.5,0.2-3,0.3-4.4,0.5c-2.7,0.3-5.3,0.6-7.8,0.6c-4.2,0-7.7-0.9-10.8-2.6
		c-5-3.7-6.5-6.8-8.6-11c-0.5-1.1-1.1-2.2-1.7-3.4c0-0.2-0.2-0.5-0.3-0.7c-0.4-0.6-1-1.1-1.6-1.4c1.4-1.1,3.8-3.2,6-5.1l5-4.3
		c1.3,1.1,3,1.7,5,1.7c2.7,0,5.5-1.1,8-3.2c1.7-1.4,3.1-3.2,4.1-5.2c1.9-3.8,1.9-7.6,0.2-10.4c-1.3-2.1-3.6-3.3-6.4-3.3
		c-2.8,0-5.6,1.1-8.1,3.2c-4.2,3.4-6.4,8.8-5.4,12.9c0,0.1,0,0.2,0,0.3c-0.4,0.3-0.9,0.7-1.5,1.2c-10.8,8.8-15,12.6-15.4,14.1
		c-0.1,0.7,0.1,1.4,0.5,1.9c0.4,0.4,0.9,0.7,1.5,0.7c0.1,0,0.2,0,0.3,0c0.1,0.2,0.2,0.5,0.3,0.8c0.7,2,5,9.5,7.4,12.5
		C60.6,86,67,89.4,76.1,90.4h0.2c0.8,0,1.9,0.1,3,0.2c2.1,0.1,4.5,0.3,6.4,0.1c0.6,11.7,1.4,30.2,1.1,32.5
		c-4,3.8-31.9,39.3-33.7,42.4c-0.5,0.8-0.8,1.7-0.8,2.7c0.1,3.6,4,6.1,7.4,4c4.9-2,29.8-30.3,36.6-40.8c0.3,0,0.6,0.1,0.9,0.1
		c-1.6,5.9-2.8,11.9-2.8,15.6c0,2.9,0.6,6.8,3.2,8.9c2.6,2.4,27.1,17.7,28.1,18.4l0.2,0.1c0.6,0.3,1.4,0.5,2.1,0.5
		c2.7,0,4.8-2.1,4.8-4.4c0-1.4-0.6-2.7-1.7-3.6l-0.2-0.2c-0.8-0.7-19-15.3-24.9-18.4c3.7-7.5,4.1-30.4,4.1-30.6l0.9-27.8
		c0-0.9-0.1-1.8-0.3-2.8v-0.1l-0.1-0.2c-0.1-0.1-0.2-0.5-0.4-0.9c1.5-0.6,4.8-1.6,9.6-1.6c7.8,0,15.8,2.7,23.5,8.1
		c0.6,0.4,1.9,1.4,3.8,2.9c0,0,0.5,0.5,1,0.8c0.7,0.4,1.4,0.6,2.1,0.6c2.2,0,4.1-1.8,4.1-4.1c0-1-0.3-1.9-1-2.7
		C153.3,90.1,152.9,89.7,152.8,89.6z M70.1,37.5c1.8-1.4,3.9-2.2,5.7-2.2s3.2,0.8,4,2.1c1.7,3,0,7.7-3.8,10.7
		c-3.6,2.8-8.1,2.8-9.7,0.1C64.6,45.2,66.3,40.5,70.1,37.5z M93,77.2L93,77.2C93,77.2,93,77.2,93,77.2C93,77.2,93,77.2,93,77.2z"/>
	<path class="st0" d="M93,77.2C93,77.2,93,77.2,93,77.2C93,77.2,93,77.2,93,77.2L93,77.2z"/>
	<path class="st0" d="M62.8,32.9c0.4,0.5,1,0.8,1.7,0.8c0.6,0,1.1-0.2,1.6-0.7c0.4-0.4,0.7-1,0.7-1.6c0-0.6-0.2-1.1-0.6-1.6
		c-0.3-0.4-0.7-0.6-1.2-0.7l-2.2-4.4L58.1,29l4.1,2.6C62.3,32.1,62.5,32.6,62.8,32.9z"/>
</g>
</svg>
