<?xml version="1.0" encoding="utf-8"?>
<!-- Generator: Adobe Illustrator 25.4.1, SVG Export Plug-In . SVG Version: 6.00 Build 0)  -->
<svg version="1.1" id="Layer_1" xmlns="http://www.w3.org/2000/svg" xmlns:xlink="http://www.w3.org/1999/xlink" x="0px" y="0px"
	 viewBox="0 0 200 200" style="enable-background:new 0 0 200 200;" xml:space="preserve">
<style type="text/css">
	.st0{fill:#FFFFFF;}
</style>
<rect x="-7.3" y="-5.6" width="213.7" height="210.1"/>
<g id="baseball_1_">
	<g>
		<path class="st0" d="M103.1,75.4c-7,0-12.6-5.7-12.6-12.6c0-7,5.7-12.6,12.6-12.6c7,0,12.6,5.7,12.6,12.6
			C115.7,69.8,110,75.4,103.1,75.4z"/>
	</g>
	<g>
		<path class="st0" d="M139.3,178.2c-0.8,0-1.5-0.2-2.2-0.6H137l-0.2-0.1c-1.1-0.7-26.7-16.9-29.4-19.3c-2.8-2.2-3.4-6.2-3.4-9.3
			c0-3.9,1.2-10.2,3-16.3c-0.3,0-0.6-0.1-1-0.1c-7.1,11-33.2,40.7-38.3,42.7c-0.9,0.6-1.8,0.9-2.7,0.9c-2.7,0-5-2.2-5-5
			c0-1,0.3-2,0.9-2.8c1.9-3.3,31.2-40.5,35.4-44.4c0.2-1.5,0-10.2-1-30.4c-2-0.2-4.4-0.6-6.4-0.9c-2.7-0.4-5.2-0.8-6.2-0.8
			c-9.5-1.2-16.3-4.7-21.5-11.3c-2-2.5-4.5-6.8-6-9.5c-1.3,1.6-2.4,3-3.2,3.9l-0.4,0.5c0.1,0.5,0,1-0.3,1.3
			c-0.7,0.8-2.1,0.6-3.2-0.4c-0.5-0.4-0.8-0.9-1-1.3c-0.3-0.7-0.2-1.3,0.1-1.8c0.3-0.3,0.8-0.5,1.3-0.5c0.9-1,2.7-3.2,4.8-5.6
			c-0.2-0.5-0.3-1-0.3-1.6v-0.3c0-0.3,0.3-1.6,1.2-2.6c-0.2-0.5-0.4-1.5-0.1-2.8c0.5-1.5,2-3,4.3-3c0.2,0,0.3,0,0.5,0
			c0.8,0.1,1.5,0.5,2,0.9c1.4-2,3.2-4.7,4.9-7.4c2.2-3.3,4.4-6.8,6.1-9c3.5-4.6,14.5-17.3,15-17.9c1.4-1.7,4.3-2,6.1-0.5
			c1.8,1.5,2.1,4.3,0.5,6.1c-0.4,0.5-11,13.6-15,17.8c-1.9,2-5,4.9-8,7.7c-2.6,2.4-5.3,4.9-7,6.7c0.1,0.1,0.2,0.3,0.2,0.3
			c0.7,1.2,1.2,2.4,1.8,3.6c2.2,4.5,3.7,7.7,9,11.5c3.5,1.9,7.1,2.8,11.6,2.8c2.7,0,5.3-0.3,8.2-0.7c1.5-0.2,3-0.4,4.6-0.5
			c1.1-1.2,2.4-2.2,3.7-2.9l0.1,0.2c0.8-0.5,2.5-1.3,5.9-1.3c0.4,0,0.8,0,1.1,0c3,0.2,4.2,0.8,4.8,1.1c1.9,1.2,2.4,1.8,2.9,2.4
			c0.2,0.2,0.3,0.4,0.6,0.7c2.2,2.3,2.9,5.5,3.2,7.3v0.1c0.2,1,0.3,2,0.3,2.9l-0.9,29.1c0,0.2-0.4,24.2-4.3,32.1
			c6.2,3.2,25.2,18.6,26.1,19.3l0.2,0.1c1.1,1,1.8,2.3,1.8,3.8C144.3,175.9,142.1,178.2,139.3,178.2z"/>
	</g>
	<g>
		<path class="st0" d="M147.8,68.2c-2.9,0-5.3-2.4-5.3-5.3c0-3,2.4-5.3,5.3-5.3c3,0,5.3,2.4,5.3,5.3
			C153.1,65.8,150.8,68.2,147.8,68.2z"/>
	</g>
</g>
</svg>
