<?xml version="1.0" encoding="utf-8"?>
<!-- Generator: Adobe Illustrator 25.4.1, SVG Export Plug-In . SVG Version: 6.00 Build 0)  -->
<svg version="1.1" id="Layer_1" xmlns="http://www.w3.org/2000/svg" xmlns:xlink="http://www.w3.org/1999/xlink" x="0px" y="0px"
	 viewBox="0 0 200 200" style="enable-background:new 0 0 200 200;" xml:space="preserve">
<style type="text/css">
	.st0{fill:#FFFFFF;}
</style>
<rect x="-14.7" y="-11" width="231.1" height="219.2"/>
<g id="basketball_1_">
	<g>
		<polygon class="st0" points="151.6,64.7 147.2,64.7 149.7,46.2 136.7,46.2 139.1,63.8 137.4,64 134.8,44.5 151.6,44.5 149.1,63.1 
			150.2,63.1 153.8,42.3 132.6,42.3 136.3,63.8 134.6,64 130.6,40.6 155.8,40.6 		"/>
	</g>
	<g>
		<path class="st0" d="M135.6,42.2c-6,0-10.8-4.9-10.8-10.9s4.9-10.8,10.8-10.8c6,0,10.8,4.9,10.8,10.8
			C146.5,37.3,141.6,42.2,135.6,42.2z"/>
	</g>
	<g>
		<path class="st0" d="M53.6,179.5L53.6,179.5c-2.6,0-4.6-2-4.6-4.5c0-1.4,0.6-2.6,1.7-3.5l0.4-0.5c2.3-2.4,8.3-8.9,12.5-12.7
			c7.9-7,14.8-28,13.8-31.4c-0.2-1.1-2.3-30.4-2.7-36.3c-6.8,1.7-14.3,10.1-22.4,25c-0.4,0.7-0.7,1.3-0.8,1.5l-0.2,0.2
			c-0.7,0.9-1.9,1.6-3.1,1.6c-2.2,0-4-1.8-4-4c0-0.5,0.1-0.9,0.3-1.4l0,0c1-3.6,15.8-29.5,31.4-34.1c1.4-2.6,3.8-4.7,6.6-5.6
			c1.7-0.4,3.5-0.7,4.7-0.5c1.5,0.1,2.9,0.6,4.3,1.3c2.3-0.8,4.7-2,7.4-3.8c7.1-4,22.5-24,22.6-24.2l0.3-0.3
			c1.6-1.4,4.2-1.2,5.6,0.4c0.7,0.9,1,1.7,1,2.6c0,0.9-0.3,1.8-0.9,2.5c-0.7,0.9-17.1,24-30,31.1c0.2,0.8,0.2,1.7,0.2,2.5l-1.7,35
			c2.5,0.2,6.5,1.1,9.4,2.1c5.4,1.9,8.3,5.9,8,10.9c-0.6,11.1-13.7,32-13.8,32.2c-0.8,1.3-2.3,2-3.8,2c-2.5,0-4.6-2-4.6-4.6
			c0-0.8,0.2-1.6,0.6-2.2c0.5-0.9,8.5-17.9,8.8-19.8c0.7-2.2,0.6-3.9-0.2-5.2c-1.7-2.6-6.3-3.2-9-3.5c-0.3,0-0.5-0.1-0.8-0.1
			c-0.4,0.8-1.2,2.9-2,4.9c-3.1,7.7-8.2,20.6-13.9,25.3c-2.6,2.1-7.8,6.8-12,10.6c-2.4,2.1-4.5,4-5.7,5.1c-0.2,0.3-0.6,0.6-1,0.9
			c-0.1,0.1-0.2,0.1-0.3,0.2c-0.2,0.1-0.3,0.1-0.5,0.2c-0.1,0-0.3,0.1-0.5,0.2c-0.2,0-0.4,0.1-0.6,0.1L53.6,179.5z"/>
	</g>
	<g>
		<path class="st0" d="M84.6,74.6C78.2,74.6,73,69.4,73,63s5.2-11.6,11.6-11.6S96.2,56.6,96.2,63C96.1,69.4,90.9,74.6,84.6,74.6z"/>
	</g>
</g>
</svg>
