<?xml version="1.0" encoding="utf-8"?>
<!-- Generator: Adobe Illustrator 25.4.1, SVG Export Plug-In . SVG Version: 6.00 Build 0)  -->
<svg version="1.1" id="Layer_1" xmlns="http://www.w3.org/2000/svg" xmlns:xlink="http://www.w3.org/1999/xlink" x="0px" y="0px"
	 viewBox="0 0 200 200" style="enable-background:new 0 0 200 200;" xml:space="preserve">
<style type="text/css">
	.st0{fill:#FFFFFF;}
</style>
<g id="boxing_1_">
	<rect x="-16" y="-6.1" width="220.6" height="218.6"/>
	<g>
		<path class="st0" d="M127.1,177.8L127.1,177.8c-0.6,0-1.1-0.1-1.7-0.2c-0.8-0.3-1.5-0.6-2-1.1c-0.7-0.5-1.3-1.3-1.6-2.1l-0.2-0.6
			c-0.2-0.6-0.3-1.1-0.3-1.6c0-2.7,0.3-25.6-3.3-34.9c-2.8-7.3-9.5-12.6-14.4-16.1c-0.8-0.6-1.6-1.1-2.4-1.7c0,0-0.1,0-0.1-0.1
			c0.5,2.4,1,5.1,1.2,7.8c0.7,9-1.7,15.8-8.3,23.2c-1.5,1.8-3.3,3.3-5,4.9l-1.5,1.3c-4.7,3.8-22.8,17.5-23,17.6l-0.3,0.2
			c-0.9,0.6-2,0.9-3,0.9c-2.8,0-5.1-2-5.6-4.7l-0.1-0.9v-0.1v-0.5c0-0.2,0.1-0.5,0.1-0.8c0-0.1,0.1-0.3,0.1-0.4
			c0.1-0.3,0.2-0.5,0.3-0.8c0.1-0.2,0.2-0.3,0.3-0.5s0.2-0.3,0.3-0.5c0.2-0.2,0.3-0.3,0.4-0.5c0.1-0.1,0.2-0.2,0.4-0.3
			c0.3-0.3,0.4-0.4,0.5-0.4c2.8-2.5,6.3-5.1,10.1-7.8c4.4-3.2,8.9-6.5,12.6-9.9c3.7-4,6-7.3,6.7-12.2c0.8-5.7-0.4-11.4-1.6-16.2
			l-0.3-1.3c-0.7-2.5-1.4-5-1.6-7.6c-0.2-1.1-0.3-2.3-0.3-3.5l-2-38.2c0-6.9,0-13.4,7.4-17.5c2.2-1.2,6-1.7,8.5-1.7
			c0.9,0,2.2,0.1,3,0.3l0.9,0.2c3.8,0.8,7.2,2,7.5,7.5l0.1,0.3c0.2,0.4,0.4,0.9,0.6,1.3c2.7-1.2,5.9-4.1,8.2-6.3
			c-1.8-1.8-2.8-4.2-2.8-6.8c0-5.4,4.4-9.7,9.7-9.7c4.1,0,7.9,2.7,9.2,6.6c0.9-0.1,1.3,0,1.3,0l0,0c5.1,0,9.3,4.3,9.3,9.8
			c0,4.7-3.4,8.7-7.9,9.6c-2.6,6.6-6.8,11.8-11.3,14.1c-5,2.6-11.5,2.5-17.4-0.2l-1.8,30.5c6.2,2.7,13.4,8.9,15.5,11.5
			c16.5,16.5,11.4,53.2,11.2,54.7C132.8,175.2,130.2,177.8,127.1,177.8z M115.2,66.6c1,0.8,2.1,1.3,3.2,1.1c2.6-0.6,5.5-3,8.7-7.1
			L126,57C123.3,60.3,118.7,64.2,115.2,66.6z"/>
	</g>
	<g>
		<path class="st0" d="M103.9,51.2c-8,0-14.5-6.5-14.5-14.5s6.5-14.5,14.5-14.5s14.5,6.5,14.5,14.5
			C118.3,44.7,111.9,51.2,103.9,51.2z"/>
	</g>
</g>
</svg>
