<?xml version="1.0" encoding="utf-8"?>
<!-- Generator: Adobe Illustrator 25.4.1, SVG Export Plug-In . SVG Version: 6.00 Build 0)  -->
<svg version="1.1" id="Layer_1" xmlns="http://www.w3.org/2000/svg" xmlns:xlink="http://www.w3.org/1999/xlink" x="0px" y="0px"
	 viewBox="0 0 200 200" style="enable-background:new 0 0 200 200;" xml:space="preserve">
<style type="text/css">
	.st0{fill:#FFFFFF;}
</style>
<rect x="-22" y="-11" width="244.1" height="224.7"/>
<path class="st0" d="M143.1,27.1c-0.4-2.1-2.2-3-3.8-3c-1.1,0-2.1,0.4-2.7,1.2c-0.4,0.5-0.9,1.3-0.6,2.6c1.3,6.4-0.6,12.9-2.5,19.3
	l-0.1,0.2c-0.2,0.7-3.8,8.7-4.8,10.8c-0.5,1-1,1.9-1.6,2.8c-0.2,0.2-0.4,0.5-0.5,0.7c-0.4-0.2-0.8-0.4-1.3-0.5c-1.5-0.2-3,0.3-4,1.3
	c-0.1,0.1-0.4,0.5-0.5,0.6c-1,1.3-1.9,2.4-2.7,3.4c-3.2,4.1-5.4,7-11.6,9.8c-2.5,0.7-5.1,1.1-7.7,1.1c-5.3,0-10.4-1.6-15.3-3.1
	c-0.4-0.4-0.9-0.8-1.3-1.2c0.3,0,0.7,0.1,1,0.1c5,0,9.6-2.8,11.9-7.4c1.5-3.2,1.7-6.8,0.6-10.1c-1.2-3.3-3.5-6-6.7-7.6
	c-1.8-0.9-3.8-1.3-5.8-1.3c-5.1,0-9.7,2.8-11.9,7.4c-1.5,3.2-1.7,6.7-0.6,10.1c1,2.7,2.7,4.9,4.9,6.5c-1.7,0-3.4,0.3-5,0.9
	c-4.1,1.3-7.3,4.5-7.9,8.1c0,0.3-2.8,28-2.8,28c-0.7,3.5,2.1,9.6,3.6,12.9c0.3,0.6,0.5,1.1,0.6,1.4c5.9,12.6,6.1,15.4,6.2,17.5
	c0,0.3,0,0.5,0,0.7c0,2.8-0.1,20-0.2,28.3v4c0,0.3,0,0.6,0,1c0.1,0.4,0.1,0.7,0.2,0.9l0.1,0.3c0.1,0.3,0.3,0.6,0.4,0.8l0.5,0.7
	c1,1.2,2.4,1.9,4,1.9c1.1,0,2.1-0.4,3-0.6c0.3-0.2,0.6-0.4,0.9-0.7l0.2-0.3c0.5-0.6,0.9-1.3,1-1.9c2-5.2,2.8-13.5,3.4-20.1l0.2-2.4
	c1-11.6-1-22.9-5.8-32.5l-0.3-0.6c-0.1-0.2-0.2-0.4-0.3-0.6c0.1-0.1,0.1-0.1,0.2-0.2c1.2,0.4,2.3,0.7,3.4,1c0.6,0.2,1.3,0.4,1.9,0.6
	c2.4,0.6,6.3,1.2,10.2,1.8c4.6,0.7,9.3,1.4,10.7,2c1.2,1,0.8,10.6,0.5,16.3c-0.2,5-0.5,9.7-0.2,12.5c0,0.1,0.3,2,0.9,2.9
	c0.5,0.7,1.2,1.3,2,1.7c-2.2,5.5-4.1,12.4-1.6,19.2c0.5,1.4,1.7,2.3,3.2,2.3c1.3,0,2.5-0.6,3.1-1.6c0.6-0.9,0.7-2,0.3-3.1
	c-1.7-4.7-0.1-9.9,1.8-14.8c0.9-2.5,2.1-4.9,3.2-7.2c1.6-3.3,3.2-6.7,4.3-10.2c2.2-7,1.6-13.8,0.9-18.9c-0.1-0.8-0.2-1.6-0.3-2.4
	c-0.8-5.2-1.6-10.5,0-15.4c1-3,2.2-6.1,3.6-9.2c0.7-1.5,1.5-2.9,2.4-4.3c0.9-1.5,1.8-3,2.5-4.6c1.6-3.7,1.2-7.4,0.9-11
	c-0.3-2.7-0.5-5.2,0-7.7c0.4-2.1,1.8-4.2,3.1-6.2c0.6-1.1,1.3-2.1,1.9-3.2c1.7-3,3-6.4,4.3-10.8C142.8,40.9,144.5,34,143.1,27.1z
	 M116.3,94.1l-0.4,0.9c-1.1,2.8-2.3,5.7-3,8.7c-1,4-0.8,8.1-0.3,12.2c-1.8-2-4.5-3.9-8.2-5.6c-7.2-3.3-15.3-5.3-23.5-5.7l1.7-8
	c8.5,5.3,17.7,5.7,26.5,1.4c2.3-0.9,5-2.5,7.3-4.2C116.4,93.9,116.3,94,116.3,94.1z M121.2,84.8c-0.2,0.4-0.5,0.8-0.7,1.2
	c-0.1-0.3-0.2-0.6-0.4-0.8c-0.4-0.7-1-1.1-1.5-1.4c-0.1,0-0.2-0.1-0.3-0.2l-0.2-0.1c-0.3-0.1-0.6-0.2-0.9-0.3c-0.1,0-0.2,0-0.3,0
	c-1.1-0.1-2.2,0.1-3,0.7l-0.2,0.1c-2.8,2-4.4,3-5.3,3.5c-1.7,0.9-6.2,3.1-11.3,3.1c-4.4,0-8.1-1.8-11.1-5.2c2.3,0.1,4.4,0.3,5.1,0.6
	c9.9,0.8,17.7-1.4,24.3-7c2-1.6,4.6-4.3,6.8-6.8c0.1,1.1,0.2,2.3,0.3,3.7C122.9,79.3,122.8,81.8,121.2,84.8z"/>
</svg>
