<?xml version="1.0" encoding="utf-8"?>
<!-- Generator: Adobe Illustrator 25.4.1, SVG Export Plug-In . SVG Version: 6.00 Build 0)  -->
<svg version="1.1" id="Layer_1" xmlns="http://www.w3.org/2000/svg" xmlns:xlink="http://www.w3.org/1999/xlink" x="0px" y="0px"
	 viewBox="0 0 200 200" style="enable-background:new 0 0 200 200;" xml:space="preserve">
<style type="text/css">
	.st0{fill:none;}
	.st1{fill:#FFFFFF;}
</style>
<rect x="-11.3" y="-5.6" width="236.6" height="219.6"/>
<g>
	<path class="st0" d="M105.8,90v0.2l0.1-0.1l0.7,1.2c3,5.1,13.8,22.1,29.3,28c2.5,0.9,9.3,3.2,9.9,3.4c0.2,0.1,0.4,0.1,0.6,0.1
		c0.5,0,1.1-0.1,1.5-0.4l0.4-0.3c1.2-1,1.5-2.6,0.7-3.9c-0.3-0.5-0.8-1-1.4-1.2l-0.4-0.2c-1.2-0.4-4.7-1.6-6.1-2.2
		c-24.9-10.7-29.2-28.8-29.8-32.4l-0.1-0.8c0.4-4.1-1.1-8.4-3.9-10.7c-1.8-1.5-3.5-2.6-6.2-3.2c-1.1-0.3-2.3-0.5-3.5-0.5
		c-1.7,0-3.2,0.5-4.5,1.4L93,68.5c-1.7,1.3-13.4,17.8-20.4,27.9c-1.3,1.6-6.2,9.1-6.2,13.2v0.3l-0.1,0.2c-7.2,13.7-9.5,17-11.6,18.9
		c-2.6,2.1-18.4,13.8-26,19.4l-3.4,2.5c-0.1,0.1-0.3,0.2-0.4,0.3l-0.2,0.1c-0.2,0.2-0.3,0.4-0.5,0.6c0,0.1,0,0.1-0.1,0.2
		c-0.1,0.2-0.2,0.4-0.3,0.6l-0.3,0.9c0,0.7,0.1,1.4,0.4,2.1c0.4,0.9,1.2,1.6,2.1,1.9c0.3,0.1,0.7,0.2,1,0.2h0.2c0.6,0,1-0.1,1.5-0.3
		h0.1c5.8-1.7,13.6-6.5,19.8-10.4c0.8-0.5,1.6-1,2.4-1.5c10.8-6.7,19.2-15.8,24.4-26.3l0.1-0.2l0.1-0.1c1.2-1.2,7.8-1.2,8.6-1.2
		c0.9,0,1.5,0,1.8,0.1c13.3,1.4,21.2,2.4,23.5,3c2.7,0.6,3.5,6.6,4.7,19.9c0.5,5.5,1,10.7,1.7,13.7c0.1,0.5,0.5,1.6,0.9,2
		c1.4,1.5,3.8,1.6,5.3,0.3c0.4-0.3,0.7-0.7,0.9-1.2c0.2-0.4,0.3-0.9,0.3-1.4V154c0.6-3.5,1-27.7-2.8-35.4c-1.5-3-5.4-5.6-11.5-7.4
		c-6-1.8-12.4-2.8-18.8-2.9l-2.5-0.1l1.8-1.8c4.4-4.3,9.7-9.6,12.6-12.4c1.2-1.3,2-2,1.9-2.1L105.8,90z"/>
	<path class="st0" d="M115.8,67.8c2.5,0,5-0.8,7.1-2.2c2.8-1.9,4.8-4.8,5.4-8.1c0.7-3.3,0-6.7-1.9-9.5c-2.4-3.5-6.4-5.6-10.6-5.6
		c-2.5,0-5,0.8-7.1,2.2c-5.8,3.9-7.4,11.8-3.4,17.6C107.6,65.7,111.6,67.8,115.8,67.8z"/>
	<path class="st0" d="M174.5,145.5h-7.6l-4.5-9.6c-0.1-0.2-0.2-0.3-0.3-0.3H151c-0.2,0-0.4,0.2-0.4,0.4s0.2,0.4,0.4,0.4h10.7
		l4.3,9.1h-22.5c-1.1,0-2,0.9-2,2v8.1c0,1.1,0.9,2,2,2h31c1.1,0,2-0.9,2-2v-8.1C176.5,146.4,175.6,145.5,174.5,145.5z"/>
	<path class="st1" d="M115.8,69.9c3,0,5.8-0.9,8.3-2.6c3.3-2.2,5.5-5.6,6.3-9.5c0.8-3.9,0-7.8-2.3-11.1c-2.8-4.1-7.4-6.5-12.3-6.5
		c-3,0-5.8,0.9-8.3,2.5c-6.8,4.6-8.6,13.8-4,20.6C106.3,67.5,110.8,69.9,115.8,69.9z"/>
	<path class="st1" d="M104.1,95.1l1.6-1.7c3.8,6.3,14.6,22,29.7,27.7c1.3,0.5,9,3.2,10.3,3.5c0.3,0.1,0.7,0.1,1,0.1
		c0.9,0,1.7-0.2,2.5-0.7l0.4-0.2c2.2-1.6,2.9-4.6,1.4-6.9c-0.5-0.8-1.2-1.4-2-1.8l-0.5-0.3c-0.1,0-4.8-1.6-6.4-2.2
		c-26-11.2-28.5-30.5-28.6-31.3v-0.1c0.4-4.7-1.5-9.5-4.7-12.2c-1.8-1.5-3.9-3-7.2-3.7c-1.1-0.2-2.5-0.5-3.9-0.5
		c-2.2,0-4.1,0.6-5.8,1.8C89.6,68.3,77.9,85,71,95c-0.8,0.9-6.5,9-6.6,14.2c-7,13.1-9.2,16.3-11,18c-2.5,2-18.3,13.6-25.9,19.3
		l-3.3,2.4c-0.2,0.1-0.4,0.3-0.7,0.5l-0.2,0.2c-0.3,0.2-0.5,0.5-0.7,0.8l-0.1,0.2c-0.1,0.2-0.2,0.4-0.3,0.6l-0.3,0.7l-0.1,0.2
		c-0.5,1.4-0.4,3,0.3,4.3c0.7,1.4,1.9,2.5,3.3,3c0.6,0.2,1.1,0.3,1.6,0.3c0.1,0,0.2,0,0.3,0c0.8,0,1.5-0.1,2.2-0.4
		c6.1-1.8,13.9-6.6,20.3-10.6c0.8-0.5,1.6-1,2.4-1.5c11.1-6.9,19.7-16.2,25.1-26.9c0.9-0.3,4.2-0.6,7.1-0.6c1.1,0,1.4,0,1.5,0.1
		c16.5,1.7,21.7,2.5,23.2,2.9c1.6,0.8,2.5,11.6,3.1,18.1c0.5,5.6,1,10.9,1.8,14.1c0.2,0.7,0.8,2.2,1.4,2.9c1.1,1.2,2.7,1.9,4.3,1.9
		c1.5,0,2.8-0.5,3.9-1.5c0.6-0.5,1.1-1.2,1.4-1.9c0.3-0.7,0.5-1.4,0.5-2.2c0.7-4,1.1-28.4-3-36.6c-1.8-3.6-6.1-6.4-12.8-8.4
		c-5.5-1.6-11.1-2.6-16.9-2.9c4-3.9,8.3-8.2,10.9-10.7C103.8,95.4,104,95.3,104.1,95.1z"/>
	<path class="st1" d="M174.5,143.4h-6.2l-3.9-8.3c-0.3-0.9-1.1-1.5-2-1.6H151c-1.4,0-2.5,1.1-2.5,2.5c0,1.4,1.1,2.5,2.5,2.5h9.4
		l2.3,4.9h-19.2c-2.3,0-4.1,1.8-4.1,4.1v8.1c0,2.3,1.8,4.1,4.1,4.1h31c2.3,0,4.1-1.8,4.1-4.1v-8.1
		C178.7,145.2,176.8,143.4,174.5,143.4z"/>
</g>
</svg>
