<?xml version="1.0" encoding="utf-8"?>
<!-- Generator: Adobe Illustrator 25.4.1, SVG Export Plug-In . SVG Version: 6.00 Build 0)  -->
<svg version="1.1" id="Layer_1" xmlns="http://www.w3.org/2000/svg" xmlns:xlink="http://www.w3.org/1999/xlink" x="0px" y="0px"
	 viewBox="0 0 200 200" style="enable-background:new 0 0 200 200;" xml:space="preserve">
<style type="text/css">
	.st0{fill:#FFFFFF;}
	.st1{fill:none;}
</style>
<rect x="-10.1" y="-7.3" width="218.6" height="214.2"/>
<g>
	<path class="st0" d="M52.2,154.6c15.6,0,28.4-12.7,28.4-28.4c0-15.7-12.8-28.4-28.4-28.4c-15.7,0-28.4,12.8-28.4,28.4
		C23.8,141.9,36.5,154.6,52.2,154.6z"/>
	<path class="st1" d="M21,126.2c0,17.2,14,31.2,31.2,31.2s31.2-14,31.2-31.2c0-17.2-14-31.2-31.2-31.2S21,109,21,126.2z M52.2,97.8
		c15.6,0,28.4,12.7,28.4,28.4c0,15.7-12.8,28.4-28.4,28.4c-15.7,0-28.4-12.7-28.4-28.4C23.8,110.6,36.5,97.8,52.2,97.8z"/>
	
		<ellipse transform="matrix(0.9732 -0.2298 0.2298 0.9732 -27.5984 15.3691)" class="st1" cx="52.2" cy="126.2" rx="26.4" ry="26.4"/>
	<path class="st1" d="M123.5,85.2c0.1-0.9,0.3-1.8,0.3-2.8c0.2-1.3,0.3-5.2-1.4-7S101.5,64,89,58c-3.8-1.9-8.6-1.3-11.2,1.3
		c-0.9,0.7-1.6,1.4-2.2,2.3c-0.9,1.4-1.7,2.9-2.6,4.5c-1.4,2.6-2.9,5.3-4.8,7.7c-3.6,5-21.9,12-29.7,14.8l-0.4,0.1
		c-0.9,0.3-1.5,1-1.7,1.9c0,0.1,0,0.3-0.1,0.4c-0.1,0.8,0.2,1.5,0.6,2c0.5,0.5,1.1,0.9,1.8,0.9c0.3,0,0.5,0,0.6,0l0.2-0.1h0.1
		c2.6-0.5,28.7-9.3,33.3-13c2.6-2.4,5-4.9,6.8-7.4l0.5-0.7l1,0.6l16.9,8.2L95.4,82c-6,0.8-10.7,2.6-11.7,4.5
		c-1.9,2.5-1.6,5.8-1.1,8.4c0.9,4.3,4,9.9,6.4,13.7c1.1,1.7,2.7,4.5,4.2,7c1,1.7,2,3.6,2.4,4.2l0.2,0.2c0.6,0.7,1.4,1.1,2.3,1.2
		c2,0,3.4-1.4,3.6-3.1c0-0.5,0-0.9-0.2-1.4c-1.4-2.5-8.6-15.6-10.6-23.8l-0.3-1l1.1-0.2c1.2-0.2,2.4-0.4,3.7-0.5
		c3.7-0.5,7.6-1,11.2-2.2c1-0.4,2-0.8,3-1.3l1.6-1l-0.3,2c-1.4,8.5-2.6,18.6-2.8,21.2c-1.5,14.4-1.9,24-2,27.2l-0.1,1
		c-0.1,0.9,0.2,1.8,0.8,2.4c0.6,0.7,1.4,1.1,2.3,1.2h0.3c0.2,0,0.3,0,0.4,0h0.3c-0.1,0,0,0,0.2-0.1l0.7-0.3c0.3-0.2,0.6-0.4,0.9-0.8
		c0.2-0.2,0.3-0.4,0.4-0.6c0.3-0.5,0.4-0.9,0.4-1.3v-0.9c0.4-14.7,0.9-23.5,1.6-26.1c1.3-4.6,2.8-8.2,4.3-11.7
		C120.4,95.4,122.2,91.1,123.5,85.2z"/>
	<path class="st1" d="M73.8,59.7c1.5-2.6,1.9-5.7,1.1-8.7c-1.2-5-5.7-8.5-10.9-8.5c-1,0-2,0.1-3,0.4c-3,0.8-5.4,2.7-7,5.3
		c-1.5,2.7-1.9,5.7-1.1,8.7c1.3,5,5.9,8.5,11,8.5c1,0,2-0.1,3-0.4C69.8,64.2,72.3,62.3,73.8,59.7z"/>
	<path class="st1" d="M147.8,95c-17.2,0-31.2,14-31.2,31.2c0,17.2,14,31.2,31.2,31.2c17.2,0,31.2-14,31.2-31.2
		C179.1,109,165,95,147.8,95z M147.8,154.6c-15.6,0-28.4-12.7-28.4-28.4c0-15.6,12.7-28.4,28.4-28.4c15.6,0,28.4,12.7,28.4,28.4
		C176.2,141.9,163.5,154.6,147.8,154.6z"/>
	
		<ellipse transform="matrix(0.7071 -0.7071 0.7071 0.7071 -45.9473 141.4735)" class="st1" cx="147.8" cy="126.2" rx="26.4" ry="26.4"/>
	<path class="st0" d="M147.8,97.8c-15.7,0-28.4,12.8-28.4,28.4c0,15.7,12.8,28.4,28.4,28.4c15.7,0,28.4-12.7,28.4-28.4
		C176.2,110.5,163.4,97.8,147.8,97.8z"/>
	<path class="st0" d="M147.8,93c-15.9,0-29.2,11.2-32.4,26.1c0.3-4.6,0.6-6.4,0.8-7.1c1.3-4.5,2.8-8.1,4.2-11.5
		c1.9-4.6,3.7-9,5-15.1c0.1-1,0.2-2,0.3-2.9c0.2-1.2,0.5-6.1-1.9-8.6c-2.5-2.6-30.7-16.2-33.9-17.8c-4.5-2.1-9.9-1.4-13,1.3
		c0.6-2.3,0.6-4.7,0-7c-1.5-5.8-6.9-9.9-12.9-9.9c-1.2,0-2.4,0.2-3.5,0.5c-3.4,0.9-6.3,3.1-8.1,6.2c-1.7,3.2-2.2,6.7-1.3,10.2
		c1.5,5.8,6.9,9.9,12.9,9.9c1.2,0,2.4-0.1,3.5-0.5c1.4-0.4,2.7-1,3.9-1.7c-1.4,2.6-2.8,5.2-4.6,7.4c-2.7,3.7-16.7,9.8-28.9,14.2
		c-0.1,0-0.1,0.1-0.2,0.1c-1.5,0.5-2.6,1.7-3,3.2c-0.1,0.2-0.2,0.5-0.2,0.8v0.3c-0.1,1.1,0.3,2.2,1.1,3.1c0.9,1,2,1.5,3.2,1.6h0.1
		C27.2,100.9,19,112.6,19,126.2c0,18.3,14.9,33.2,33.2,33.2s33.2-14.9,33.2-33.2S70.5,93,52.2,93c-1.4,0-2.7,0.1-4,0.3
		c9.1-3,22.8-8,26.4-10.8c2.5-2.3,4.7-4.7,6.6-7.1l10.9,5.3c-3.5,0.7-8.6,2.2-10,4.9c-2.2,3-1.9,6.8-1.3,9.8
		c0.9,4.6,4.2,10.4,6.6,14.4c1.1,1.6,2.7,4.4,4.1,6.9c2.1,3.6,2.6,4.5,3,4.8c0.9,1,2.1,1.6,3.5,1.7c2.9,0.2,5.4-2,5.6-4.9
		c0.1-0.7,0-1.5-0.4-2.4c-0.9-1.5-7.8-14.2-10.2-22.4c0.9-0.2,1.7-0.3,2.6-0.4c3.8-0.5,7.7-1,11.6-2.3c0.5-0.2,1-0.4,1.5-0.6
		c-1.2,7.7-2.4,16.7-2.6,19.5c-1.5,14.5-1.9,24.1-2,27.3l-0.1,1c-0.1,1.4,0.4,2.7,1.3,3.8c0.9,1,2.1,1.6,3.5,1.8h0.3l0.4-0.2
		c0.2,0,0.4,0,0.6,0h0.1c0.2,0,0.4-0.1,0.7-0.2c0.2-0.1,0.3-0.1,0.5-0.2l0.5-0.2c0.5-0.3,1-0.7,1.6-1.4c0.1-0.2,0.3-0.4,0.5-0.8
		c0.4-0.7,0.6-1.3,0.6-2c0,0,0-0.4,0-1c0.1-2.8,0.2-5.3,0.2-7.5c1.9,16.5,16,29.3,33,29.3c18.3,0,33.2-14.9,33.2-33.2
		S166.1,93,147.8,93z M83.4,126.2c0,17.2-14,31.2-31.2,31.2S21,143.4,21,126.2C21,109,35,95,52.2,95S83.4,109,83.4,126.2z
		 M147.8,157.4c-17.2,0-31.2-14-31.2-31.2c0-17.2,14-31.2,31.2-31.2c17.2,0,31.3,14,31.2,31.2C179,143.4,165,157.4,147.8,157.4z"/>
</g>
</svg>
