<?xml version="1.0" encoding="utf-8"?>
<!-- Generator: Adobe Illustrator 25.4.1, SVG Export Plug-In . SVG Version: 6.00 Build 0)  -->
<svg version="1.1" id="Layer_1" xmlns="http://www.w3.org/2000/svg" xmlns:xlink="http://www.w3.org/1999/xlink" x="0px" y="0px"
	 viewBox="0 0 200 200" style="enable-background:new 0 0 200 200;" xml:space="preserve">
<style type="text/css">
	.st0{fill:#FFFFFF;}
</style>
<rect x="-44" y="-39" width="284" height="277"/>
<g id="fencing_1_">
	<g>
		<path class="st0" d="M88.4,166.6c-2.7,0-4.9-2.2-4.9-4.9c0-1.8-1.4-23.9-2.5-25.7c-0.8-1.2-4.1-4.3-7.3-7.2
			c-2.7-2.5-5.5-5.1-7-6.8c-0.4-0.5-0.8-1-1.2-1.5c-0.7-0.8-1.4-1.7-2-2.6c-0.1,0-0.2,0-0.2,0c0,0.2,0,0.4-0.1,0.6l-0.1,0.7
			c-1.2,9.4-5.5,18.5-13.2,28c-1.1,1.4-2.3,3-3.5,4.6c-3.4,4.5-6.9,9.1-10.5,11.6c-0.4,0.4-1,0.7-1.6,0.9l0,0l-0.2,0.1
			c-0.5,0.1-0.9,0.2-1.3,0.2c-2.7,0-4.9-2.2-4.9-4.9c0-0.4,0-0.8,0.1-1.2l0.1-0.2c0.1-0.3,0.2-0.6,0.4-0.9l0.3-0.5
			c0.1-0.1,0.2-0.2,0.2-0.3l1.6-2.4c4.2-6.1,14.1-20.5,15.5-22.7c0.1-0.2,0.2-0.4,0.3-0.6c1-1.7,2.3-4,4.3-16.9
			c0.1-0.3,0.1-0.6,0.2-1.1c0.1-5.7,0.6-21.6,0.8-30.8c0.1-2.7,0.1-4.8,0.2-6l0,0v-0.9c0-1,0.2-2,0.4-3.1c-2.2-0.3-4.6-1.2-6.7-1.9
			c-1.2-0.4-2.3-0.8-3.1-1C33.7,65.7,28.2,60.5,25,53c-1.7-4-3.9-14.1-4-14.5c-0.1-0.7,0-1.2,0.1-1.7c0.6-2.2,3-3.6,5.2-3
			c1.4,0.4,2.5,1.4,3,2.8l0,0l0.1,0.2c0.4,1.7,0.7,3.3,1,4.7c0.9,4.6,1.5,8,5.5,13c5.5,5.2,11.4,6.1,18.2,7.1
			c0.9,0.1,1.8,0.3,2.7,0.4c1.6-1.3,3.5-2.2,5.5-2.7c1.5-0.2,4-0.4,5.2,0c2.1,0.4,3.9,1.1,5.1,2c0,0,5.1,3.4,6.2,8.1
			c0.4,0.9,5.7,13.7,13,18c3.3,1.4,6,2,9,2c1.5,0,3.1-0.1,4.8-0.3c1.4-0.1,3-0.3,4.7-0.4h0.4l0,0c0.4,0,0.8,0.1,1.2,0.3v-3.2h0.9
			c1.8,0,2.6,2.9,2.8,5.8h53.9c9.5,0,9.5,0.3,9.5,1.3v0.6l-0.6,0.3l0,0c-0.5,0.2-2.1,0.5-9,0.5h-53.9c-0.2,2.8-1,5.7-2.8,5.7H112v-3
			c-0.3,0.1-0.6,0.2-0.9,0.2c-0.1,0-5.7,0.4-10.3,0.4c-2.1,0-3.7-0.1-4.8-0.2c-8.1-1-14.5-4.8-20.1-12l-3.7,23.5
			C78.3,113.4,85,121,89.1,128c3.5,5.9,4.2,33.6,4.2,33.9C93.3,164.4,91.1,166.6,88.4,166.6z"/>
	</g>
	<g>
		<path class="st0" d="M69.2,60.3c-0.5,0-0.9,0-1.4-0.1c-7-0.7-12.1-6.9-11.4-13.7c0.7-6.8,6.9-11.7,14-11c3.4,0.3,6.4,2,8.6,4.6
			s3.2,5.8,2.8,9.1C81.2,55.5,75.8,60.3,69.2,60.3z"/>
	</g>
</g>
</svg>
