<?xml version="1.0" encoding="utf-8"?>
<!-- Generator: Adobe Illustrator 25.4.1, SVG Export Plug-In . SVG Version: 6.00 Build 0)  -->
<svg version="1.1" id="Layer_1" xmlns="http://www.w3.org/2000/svg" xmlns:xlink="http://www.w3.org/1999/xlink" x="0px" y="0px"
	 viewBox="0 0 200 200" style="enable-background:new 0 0 200 200;" xml:space="preserve">
<style type="text/css">
	.st0{fill:#FFFFFF;}
</style>
<rect x="-19.3" y="-10.1" width="231.8" height="217"/>
<g id="football_3_">
	<g>
		<path class="st0" d="M95.6,49.8c-1.1,0-2.1-0.1-3.2-0.3c-8.3-1.8-13.6-9.9-11.8-18.3C82,24.1,88.3,19,95.5,19
			c1.1,0,2.2,0.1,3.2,0.3c4,0.8,7.5,3.2,9.7,6.7c2.2,3.4,3,7.5,2.1,11.6C109.1,44.6,102.8,49.8,95.6,49.8z"/>
	</g>
	<g>
		<path class="st0" d="M54.2,181c-6.5,0-11.8-5.3-11.8-11.8s5.3-11.8,11.8-11.8S66,162.7,66,169.2C66.1,175.7,60.8,181,54.2,181z"/>
	</g>
	<g>
		<path class="st0" d="M75.1,181c-0.4,0-0.8,0-1.3-0.1c-3.3-0.7-5.4-3.9-4.7-7.2l9.5-52c-0.3-0.3-0.8-0.7-1.5-0.8
			c-0.7-0.1-1.3,0-1.7,0.2c0,0-6.3,23.1-6.5,23.5l-0.4,0.8c-1,1.9-3,3.1-5.3,3.1c-3.3,0-6.1-2.7-6.1-6.1c0-0.5,0.1-0.9,0.1-1.3
			c0,0,1.8-8.9,7.7-36.3c-2.4,1.5-5.7,0.7-7.3-1.6c-0.4-0.6-0.6-1.2-0.8-1.9c-0.1-0.6-1.4-13.4-0.8-18.7
			c0.9-10.2,5.4-18.3,14.2-25.7c5.7-4.9,7.5-6,11.7-7.8L82,49c1.7-0.9,3.5-1.5,5.4-1.6h0.7c0.4,0,1,0,1.5,0h1l0.3,1.1l0.1-1.1
			l1.2,0.2c0.5,0.1,0.7,0.2,0.9,0.3c0.2,0,0.3,0.1,0.4,0.1c0,0,0.1,0,0.4,0.1l0.8,0.3c0.2,0,0.3,0.1,0.5,0.2
			c0.7,0.3,1.4,0.6,1.9,0.8c0.6,0.4,1.2,0.8,1.7,1.2l0.3,0.2c2.5,1.1,5.4,2.1,8.6,2.9c3.2,1,8.7,1.5,16.5,1.5
			c12.8,0,27.5-1.4,27.6-1.4h0.3h0.1c1.4,0.1,2.7,0.7,3.6,1.7c1,1.1,1.6,2.7,1.4,4.2c-0.2,1.5-0.8,2.5-1.6,3.3
			c-0.9,0.8-2,1.3-3.3,1.4c-1.5,0.2-16.1,2.1-31.1,2.1l0,0c-6.5,0-12.2-0.3-17.1-1c-2,11.2-22.1,106.1-23,110.3v0.3
			C80.5,179,78,181,75.1,181z M72.2,71.3c-1.5,1.6-2.8,3.5-3.9,5.5C65.6,84,66.1,88.2,66.8,94c0,0.4,0.1,0.9,0.2,1.4
			C68.5,88.5,70.2,80.5,72.2,71.3z"/>
	</g>
</g>
</svg>
