<?xml version="1.0" encoding="utf-8"?>
<!-- Generator: Adobe Illustrator 25.4.1, SVG Export Plug-In . SVG Version: 6.00 Build 0)  -->
<svg version="1.1" id="Layer_1" xmlns="http://www.w3.org/2000/svg" xmlns:xlink="http://www.w3.org/1999/xlink" x="0px" y="0px"
	 viewBox="0 0 200 200" style="enable-background:new 0 0 200 200;" xml:space="preserve">
<style type="text/css">
	.st0{fill:#FFFFFF;}
</style>
<rect x="-9.9" y="-6.1" width="220.1" height="212.7"/>
<g id="Golf_2_">
	<path class="st0" d="M126,180.5c-2.8,0-5.1-2.1-5.5-4.8l0,0c0-0.5,0-1.7,0-5.7c0.1-11.3,0.3-44,0.1-50.5c-0.7,0.1-1.3,0.1-1.6,0.1
		c-1.4,9.1-3.2,19.4-4.1,24c-0.7,3.8-3.5,6-6.2,8.2l-0.7,0.6c-3.2,2.9-23.2,21.1-23.2,21.1c-1,1-2.4,1.6-3.9,1.6
		c-2.9,0-5.4-2.3-5.6-5.2v-0.2c0-1.1,0.2-1.9,0.6-2.7l0.2-0.3c0.1-0.2,0.3-0.4,0.4-0.7c0.3-0.4,0.6-0.8,1-1.1l0.1-0.1
		c2.2-2.3,21.5-21.7,25.4-24.6c2.6-9.5,4.2-25.9,4-28.1c-0.4-4.1-3-15.3-5.1-24.2c-2.4-10.4-3.3-14.4-3.2-15.3c0-0.2,0-0.7-0.1-1.2
		c-0.2-2.6-0.5-6.5,2.4-10.8c1.1-1.9,3.4-3.4,6.2-4.4c-3.6-0.4-6.8-2.2-9.1-5c-6.5,4.5-12.8,9-19,13.4c-6.4,4.5-13,9.2-19.7,13.8
		c1,2.9,2.1,5.9,1.4,9.3c-0.5,2-1.2,3-3.8,3.4h-0.1L56.8,91c-2.2-0.3-4.3-1.7-5.8-3.7c-1.3-1.9-1.9-4.1-1.6-6.1c0.2-3.1,2.4-6,6-7.7
		c13.2-9.1,26.7-18.4,40-27.6c-0.4-1.2-0.5-2.5-0.5-3.8c0-7.8,6.4-14.2,14.2-14.2c3.1,0,6,1,8.5,2.8l17.6-11.3c1,0,2,0.7,2.4,1.7
		c0.3,0.7,0.3,1.4,0.1,2c0.2,0.1,0.4,0.2,0.7,0.3l0.3,0.1l0.7,0.4c2.7,1.5,3.7,2,5.8,3.7c3.8,3.1,6,8,6,13.7
		c0.1,4.2-3.1,9.3-5.9,12.9c-4.6,5.5-10.6,9.9-17.6,12.7c0.7,2.1,1.4,4.9,1.4,5.9c0,0.2,2.3,25.5,2.6,34.2c0.4,11.3,0,65.5,0,67.8
		C131.6,178,129,180.5,126,180.5z M114.9,55c1.8,0.1,3.4,0.3,4.9,0.9c2.6-0.5,5.1-0.9,7.4-1.9c5-2,8.5-4.6,10.8-7.8
		c2.8-3.4,2.9-6,0.5-9.8c-1-1.6-3.5-3.4-4.3-4c-1.3-0.9-2.2-1.4-2.9-1.7c-0.6-0.3-1.2-0.6-1.9-1.1l-8.1,5.6c1.2,2.1,1.8,4.5,1.8,7
		C123,47.8,119.7,52.7,114.9,55z"/>
</g>
</svg>
