<?xml version="1.0" encoding="utf-8"?>
<!-- Generator: Adobe Illustrator 25.4.1, SVG Export Plug-In . SVG Version: 6.00 Build 0)  -->
<svg version="1.1" id="Layer_1" xmlns="http://www.w3.org/2000/svg" xmlns:xlink="http://www.w3.org/1999/xlink" x="0px" y="0px"
	 viewBox="0 0 200 200" style="enable-background:new 0 0 200 200;" xml:space="preserve">
<style type="text/css">
	.st0{fill:#FFFFFF;}
</style>
<rect x="-8.1" y="-5.3" width="217.8" height="213.2"/>
<g id="weightlifting_1_">
	<g>
		<path class="st0" d="M99,66.9c-7.3,0-13.2-5.9-13.2-13.1c0-7.3,5.9-13.1,13.2-13.1s13.1,5.9,13.1,13.1
			C112.2,61,106.3,66.9,99,66.9z"/>
	</g>
	<path class="st0" d="M168.3,36.5V23c0-2.2-1.8-4-4-4c-1.2,0-2.3,0.5-3,1.4c-0.7-0.8-1.8-1.4-3-1.4c-2.2,0-4,1.8-4,4v13.5h-7.5
		c-0.1-0.4-0.4-0.9-0.7-1.2l-0.3-0.3c-1.6-1.8-4.5-1.9-6.3-0.3l-0.4,0.4c-0.1,0.1-0.5,0.6-1.2,1.6H60.1c-0.7-0.9-1.2-1.5-1.2-1.6
		l-0.4-0.4c-1.8-1.6-4.8-1.4-6.4,0.4L52,35.2c-0.3,0.4-0.5,0.8-0.7,1.3h-7.1V23c0-2.2-1.8-4-4-4c-1.2,0-2.3,0.5-3,1.4
		c-0.7-0.8-1.8-1.4-3.1-1.4c-2.2,0-4,1.8-4,4v13.5h-5.7v5.4h5.7v13.5c0,2.2,1.8,4,4,4c1.2,0,2.3-0.5,3.1-1.4c0.7,0.9,1.8,1.4,3,1.4
		c2.2,0,4-1.8,4-4V41.9h8.6c4,5.6,20.1,27,33.4,34.3c0,0.2-0.1,0.5-0.1,0.7c-0.1,0.7-0.1,74.8-0.2,97.5v0.3c0,2.9,2.3,5.2,5.2,5.2
		c2.9,0,5.2-2.3,5.2-5.2l1.3-45.2c0.3-0.2,0.8-0.4,1.4-0.4s1.1,0.2,1.4,0.4l1.3,45.2c0,2.9,2.3,5.2,5.2,5.2c2.9,0,5.2-2.3,5.2-5.2
		c0-0.1,0-0.2,0-0.3c0-29.1,0-96.9-0.1-97.5c0-0.3,0-0.6-0.1-0.8c13.1-7.2,29.4-28.8,33.3-34.3h9v13.5c0,2.2,1.8,4,4,4
		c1.2,0,2.3-0.5,3-1.4c0.7,0.9,1.8,1.4,3,1.4c2.2,0,4-1.8,4-4V41.9h5.3v-5.4H168.3z M133.6,41.9c-5.9,7.2-15,17.7-20.2,20.6
		c-2.9,1.9-5.7,3.4-8.2,4.2c-0.6-0.3-1.2-0.6-1.9-0.8c-0.5-0.1-1.1-0.2-1.8-0.3c-0.1,0-0.3-0.1-0.5-0.1s-0.3-0.1-0.6-0.1
		c-0.2,0-0.3,0-0.3,0c-0.1,0-0.3,0-0.4,0c-0.5-0.1-0.9-0.1-1.3,0h-0.3c-0.2,0-0.3,0-0.6,0c-0.2,0-0.3,0.1-0.5,0.1s-0.3,0-0.4,0.1
		c-0.7,0.1-1.3,0.3-1.9,0.4c-0.6,0.2-1.2,0.4-1.8,0.8c-2.5-0.9-5.3-2.3-8.3-4.3C79.4,59.6,70.3,49,64.4,41.9H133.6z"/>
</g>
</svg>
