<?xml version="1.0" encoding="utf-8"?>
<!-- Generator: Adobe Illustrator 25.4.1, SVG Export Plug-In . SVG Version: 6.00 Build 0)  -->
<svg version="1.1" id="Layer_1" xmlns="http://www.w3.org/2000/svg" xmlns:xlink="http://www.w3.org/1999/xlink" x="0px" y="0px"
	 viewBox="0 0 200 200" style="enable-background:new 0 0 200 200;" xml:space="preserve">
<style type="text/css">
	.st0{fill:#FFFFFF;}
</style>
<rect x="-5.2" y="-5.2" width="211.1" height="212.4"/>
<g id="field_hockey_1_">
	<g>
		<path class="st0" d="M123,61c-6.5,0-12.5-3.5-15.8-9.1c-5-8.7-2-19.9,6.7-24.9c2.8-1.6,5.9-2.4,9.1-2.4c6.5,0,12.5,3.5,15.8,9.1
			c5,8.7,2,19.8-6.7,24.9C129.4,60.2,126.2,61,123,61z"/>
	</g>
	<g>
		<path class="st0" d="M82.1,175.4c-4,0-7.2-3.2-7.2-7.2c0-1.1,0.7-3,1.1-3.8l0,0c1.9-3.5,5.8-8.8,10-14.3
			c4.7-6.3,12.7-16.9,11.9-19c-1.1-1.7-6-6.2-10.7-10.6c-3.9-3.6-8-7.4-10.2-9.9c-0.5-0.7-1.1-1.4-1.8-2.2c-1-1.2-2-2.4-3-3.8
			c-0.1,0-0.2,0-0.3,0c0,0.3-0.1,0.5-0.1,0.8l-0.1,1.1c-1.9,14.7-8.2,29.1-18.4,41.6l-2.1,2.6c-5.8,7.1-13,16-19.4,20.4
			c-0.6,0.5-1.4,1-2.4,1.4l0,0l-0.3,0.1l0,0H29c-0.7,0.2-1.3,0.3-1.8,0.3c-3.5,0-6.5-2.5-7.1-5.9H20v-1c0,0,0-0.1,0-0.2l0.1-1.3
			c0-0.1,0-0.3,0.1-0.4l0.1-0.3c0.1-0.5,0.3-1,0.5-1.4l0.3-0.3c0-0.2,0.3-0.5,0.5-0.8l2.4-3.5c6.2-8.9,20.6-29.9,22.7-33.3
			c0.1-0.3,0.3-0.6,0.5-0.9c1.4-2.5,3.4-5.8,6.4-24.7c0.1-0.5,0.2-1.2,0.4-2c0.8-4.9,2.4-14,5.9-17.6C71.5,64.6,86,46.9,88,46.3
			c1.6-1.1,3.7-1.6,6-1.6c2.1,0,4,0.5,5.7,1c3.9,1.1,6.4,3.1,8.5,5.1c6.1,5.9,6.6,17.4,1,23.3l-3.2,3c-0.4,4.5,0.2,8.9,1.7,13.8
			c3.9,8.4,8.1,11.5,13.8,15.7c1.4,1.1,3,2.3,4.7,3.6c0,0,0.5,0.4,0.7,0.5l0.5,0.5c1.1,1.1,2.2,2.6,2.3,5.3c0.1,1.1-0.1,2.3-0.7,3.5
			l11.9,13.2c3.2,2,11.7,10.1,11.7,10.2l16,17.7c0.4,0.4,0.7,0.7,1,0.8c0-0.3-0.1-0.6-0.1-0.9c-0.1-1.3,0.5-2.7,1.4-3.7
			c1.7-1.8,4.7-2.2,6.8-0.7l0.3,0.1l0.4,0.6c0.4,0.3,0.8,0.9,1.1,1.6c1.4,2.5,0.4,7.1-3.2,10c-1.9,1.5-4.3,2.3-6.7,2.3
			c-2.1,0-5.2-0.7-8-3.9l-15.9-17.6c-0.1-0.1-7.7-9.1-9.4-12.3l0,0l-12-13.4l0,0l-0.2,0.1h-0.2c-0.2,0-0.5,0.1-0.7,0.2
			c-0.8,0.2-1.8,0.3-2.4-0.3c-0.8,0.3-1.6,0.4-2.2,0.4l-0.9-0.1c-0.8-0.2-1.5-0.4-2.1-0.8h-0.2l-0.3-0.3c-1.1-0.6-3.3-2.3-5.7-4.3
			c0.1,0.2,0.3,0.4,0.4,0.6c4.4,7.4,6,13.5,4.8,18.2c-3.1,10.9-23.7,33-27.4,35.9c-0.5,0.6-1.3,1.1-2.2,1.5
			C84,175.2,83.1,175.4,82.1,175.4z"/>
	</g>
</g>
</svg>
