<?xml version="1.0" encoding="utf-8"?>
<!-- Generator: Adobe Illustrator 25.4.1, SVG Export Plug-In . SVG Version: 6.00 Build 0)  -->
<svg version="1.1" id="Layer_1" xmlns="http://www.w3.org/2000/svg" xmlns:xlink="http://www.w3.org/1999/xlink" x="0px" y="0px"
	 viewBox="0 0 200 200" style="enable-background:new 0 0 200 200;" xml:space="preserve">
<style type="text/css">
	.st0{fill:#FFFFFF;}
</style>
<rect x="-17" y="-10" width="244" height="222"/>
<path id="_hockey" class="st0" d="M179.7,153.1c-0.3-1.1-1.3-1.8-2.5-1.5c-2.7,0.6-5.9,0.9-9.6,0.9c-3.6,0-6.7-0.3-8.4-0.5l-0.5-0.1
	c-0.1,0-0.6-0.1-1.3-0.8l-33.2-36.4c0.2-0.6,0.2-1.2,0.1-1.7c-0.1-2.3-1-3.6-1.9-4.5c0,0-0.9-0.8-1-0.9c-1.4-1.1-2.7-2.1-4-3.1
	c-4.8-3.6-8.4-6.3-11.7-13.5c-1.3-4.1-1.8-7.9-1.5-11.7l2.7-2.5c3.3-3.4,4.1-9.2,2.5-14.2c2.6,2,5.9,3.1,9.3,3.1l0,0
	c2.7,0,5.4-0.7,7.7-2.1c7.4-4.3,10-13.8,5.7-21.2c-2.8-4.8-7.9-7.8-13.5-7.8c-2.7,0-5.4,0.7-7.7,2.1c-6.5,3.8-9.3,11.6-6.9,18.4
	c-1.4-1.1-3-2-5.2-2.6c-1.5-0.4-3.1-0.9-4.9-0.9c-1.9,0-3.7,0.5-5.3,1.5l0,0c-2.5,1.7-16,18.2-24,28.2c-2.9,3-4.2,10.8-5,15
	c-0.1,0.7-0.2,1.3-0.3,1.7c-2.5,16.1-4.2,19-5.4,21.1c-0.2,0.3-0.3,0.5-0.4,0.7c-1.8,2.8-13.5,19.8-19.1,28l-2.3,3.4
	c-0.2,0.2-0.4,0.5-0.5,0.8l-0.2,0.4c-0.2,0.3-0.3,0.6-0.4,0.9c0,0.1-0.1,0.2-0.1,0.3c-0.1,0.4-0.2,0.8-0.2,1.2v0.3
	c0,0.3,0,0.5,0.1,0.8l-9.4-1.7l-1,5.9l29.5,5.2l1-5.9L43,158c4.8-4.1,10.1-10.5,14.4-15.7l1.8-2.2c8.7-10.7,14.1-22.9,15.7-35.5
	l0.1-0.5c0-0.4,0.1-0.7,0.2-1.1c0.1,0,0.2,0,0.3,0c0.8,1.2,1.8,2.3,2.6,3.3c0.5,0.6,1,1.2,1.5,1.8c1.9,2.1,5.4,5.4,8.8,8.5
	c4,3.7,8.1,7.6,9.1,9.1c0.7,1.7-6.1,10.8-10.2,16.2c-3.5,4.7-6.9,9.2-8.5,12.2l0,0c-0.4,0.7-1,2.3-1,3.3c0,0.7,0.1,1.4,0.4,2h-9.3
	v5.9h29.9v-5.9h-8.1c5.9-5.9,18.7-20.5,20.9-28.3c1.1-4-0.3-9.3-4-15.5c-0.1-0.2-0.2-0.4-0.4-0.6c2.2,1.9,4.1,3.4,5,3.8
	c0.6,0.4,1.3,0.7,2.1,0.9c0.1,0,0.3,0,0.5,0c0.6,0.1,1.3,0,2.2-0.3c0.5,0.4,2.2,0.2,2.3,0.2l32.7,36.9c0.3,0.3,0.6,0.6,0.9,0.9
	c0.3,0.3,0.9,0.7,1.3,1c0,0,0.9,0.5,1.3,0.7c2.7,1.1,7.5,1.8,12.8,1.8l0,0c1.7,0,7.6-0.1,9.9-1.5C179,158.3,180.2,154.8,179.7,153.1
	z M22.8,158.3l0.3-1.5l8.2,1.4c0.4,0.7,0.9,1.3,1.5,1.8L22.8,158.3z M47.9,162.7l-9.2-1.6c0.8-0.3,1.5-0.6,2.1-1.2l7.4,1.3
	L47.9,162.7z M70.9,162.9v-1.5H79c0.6,0.6,1.3,1.1,2.1,1.5H70.9z M96.3,162.9h-10c0.7-0.3,1.3-0.8,1.9-1.3c0.1-0.1,0.1-0.1,0.2-0.2
	h7.9V162.9z M92.4,97.7c-1.4-1.2-2.8-2.4-4.3-3.5l2.2-2.1C90.9,94.1,91.6,96,92.4,97.7z"/>
</svg>
