<?xml version="1.0" encoding="utf-8"?>
<!-- Generator: Adobe Illustrator 25.4.1, SVG Export Plug-In . SVG Version: 6.00 Build 0)  -->
<svg version="1.1" id="Layer_1" xmlns="http://www.w3.org/2000/svg" xmlns:xlink="http://www.w3.org/1999/xlink" x="0px" y="0px"
	 viewBox="0 0 200 200" style="enable-background:new 0 0 200 200;" xml:space="preserve">
<style type="text/css">
	.st0{fill:#FFFFFF;}
</style>
<rect x="-43" y="-21.9" width="271" height="244.8"/>
<g id="figure_skating">
	<path class="st0" d="M76.3,67.6L76.3,67.6c3,0,5.9-1.1,8.2-3.1c5.2-4.5,5.8-12.4,1.2-17.6c-2.4-2.7-5.8-4.3-9.4-4.3
		c-3,0-5.9,1.1-8.2,3.1c-2.5,2.2-4,5.2-4.3,8.6c-0.2,3.3,0.8,6.6,3,9.1C69.2,66,72.7,67.6,76.3,67.6z"/>
	<path class="st0" d="M178.1,73.2L146.8,58l-2.1,4.3l10.9,5.3c-0.6,0.5-1.3,1.2-2.3,2.2c-8.2,7.7-27.5,25.6-40.5,25.6l0,0
		c-1.5,0-2.9-0.3-4.2-0.8l-0.2-0.1h-0.1c-0.5-0.2-2.4-1.5-3.2-2.2l-0.1-0.1c0,0-0.8-0.5-3.2-3.5c-2.5-3-4.8-7.2-6.5-10.3
		c7-3.2,24.3-14.5,29.6-29.8c0.6-1.9,2.1-6.7,2.5-8.3c0,0,0.1-0.5,0.1-0.7l0,0c0.1-1-0.1-2-0.7-2.8c-0.8-1.2-2.1-1.9-3.6-1.9
		c-0.9,0-1.7,0.3-2.4,0.7c-0.6,0.4-1.1,1-1.4,1.7l0,0c-0.2,0.3-0.3,0.9-0.4,1.1l0,0c-0.4,1.4-1.2,3.9-1.6,4.8
		c-8.3,21.3-23.8,24.7-25.3,25h-0.3c-0.2,0-0.8,0.2-2.5,0.1c-2.3-2-5.5-2.5-8.7-1.5h-0.1c-3.1,0.7-5.2,3.1-6,4.2
		c-4.3,0.7-16.6,1.5-24.3,1.3c-8.9-0.1-23.9-1.5-24.1-1.6l-1,0.1c-0.8,0.2-1.4,0.6-2,1.1c-1.6,1.7-1.6,4.4,0.1,6.1
		c0.5,0.5,1,0.8,1.7,1l0.8,0.2c0.3,0,35.2,2.4,47.2,2.4c0.5,0,1.1,0,1.5,0c0.4,1,0.9,2,1.5,3.1c0,0.1,0.1,0.1,4.6,7.6
		c2.7,4,5.1,7,6.7,9c4.8,5.7,9.3,8.4,11.6,9.6c0.2,0.1,0.3,0.2,0.5,0.3c0,12.9,1.7,45.4,2,48l0,0v0.1c0,0.2,0,0.3,0.1,0.5
		c0,0.1,0.1,0.2,0.1,0.3H88.9v4.8h34.8v-4.8h-12.9c0.2-0.6,0.3-1.2,0.3-1.9l0,0c0-0.3,2.3-36.1,2.5-47.7c0-0.6,0.9-1.4,2.4-2
		c21-5.1,42.7-29.5,46.8-34.4l0.1-0.1c0.7-0.7,1.1-1.6,1.3-2.5l11.9,5.8L178.1,73.2z M147.7,60.3l10.9,5.3c-0.4,0.1-0.8,0.2-1.3,0.3
		c-0.1,0-0.2,0.1-0.4,0.2l-9.9-4.8L147.7,60.3z M90.7,163.3v-1.2h11.6c0.5,0.5,1,0.9,1.6,1.2H90.7z M121.9,163.3h-13.5
		c0.4-0.2,0.8-0.5,1.2-0.8c0.2-0.1,0.3-0.3,0.4-0.4h11.9V163.3z M175.2,75.1l-10.8-5.3c-0.1-0.6-0.3-1.1-0.6-1.6l0,0l12,5.8
		L175.2,75.1z"/>
</g>
</svg>
