<?xml version="1.0" encoding="utf-8"?>
<!-- Generator: Adobe Illustrator 25.4.1, SVG Export Plug-In . SVG Version: 6.00 Build 0)  -->
<svg version="1.1" id="Layer_1" xmlns="http://www.w3.org/2000/svg" xmlns:xlink="http://www.w3.org/1999/xlink" x="0px" y="0px"
	 viewBox="0 0 200 200" style="enable-background:new 0 0 200 200;" xml:space="preserve">
<style type="text/css">
	.st0{fill:none;}
	.st1{fill:#FFFFFF;}
</style>
<rect x="-9.6" y="-11.7" width="221.8" height="221.8"/>
<g>
	<path class="st0" d="M61.3,90.6l-14.1,9.9c0.1,0.1,0.2,0.2,0.3,0.3l0.2,0.3c0.1,0,0.2,0.3,0.4,0.6v0.1L63,91.3l-0.3-0.6L61.3,90.6z
		"/>
	<polygon class="st0" points="44.7,106.2 48.1,123.5 49.6,123.2 46.2,105.8 	"/>
	<polygon class="st0" points="43.2,105.6 34.3,121.7 35.7,122.5 44.7,106.1 	"/>
	<path class="st0" d="M65,91.1c0.2-0.1,0.5-0.3,0.9-0.5c-0.4,0-0.8-0.1-1.2-0.1L65,91.1z"/>
	<path class="st0" d="M144.9,93.2l6,16.6l1.5-0.5l-6.3-16.6c-0.1,0.1-0.2,0.1-0.3,0.2l-0.3,0.1c-0.1,0-0.2,0.1-0.3,0.1L144.9,93.2z"
		/>
	<path class="st0" d="M125.2,79.3l15.9,9.8c0.1-0.2,0.2-0.4,0.3-0.6l0.2-0.3c0,0,0.1-0.1,0.2-0.2c0.1-0.1,0.1-0.2,0.2-0.2L126.3,78
		L125.2,79.3z"/>
	<polygon class="st0" points="163.2,100.6 147.2,91.4 146.2,92.6 162.4,102 	"/>
	<path class="st1" d="M172.5,36c-1.8-5.1-6.5-8.5-11.9-8.5c-1.4,0-2.8,0.2-4.1,0.7c-6.6,2.3-10.1,9.5-7.8,16c0.7,2,1.9,3.8,3.4,5.2
		c-1.1-0.6-2.1-1.1-2.7-1.5c-1.9-1-4-1.5-6.3-1.5c-4.3,0-7.8,1.8-8.8,2.4c-0.7,0.4-2.7,1.9-3.5,3.6c-1.3,2.6-4.1,9.1-3.7,11.3
		c0.3,2.3,1,4.3,2.1,6.1c-0.7,1.5-1.8,3.5-3,5.5l-2.6,3.6l-0.2,0.2c-0.8,0.9-1.5,1.5-2.1,1.7c-0.2,0.1-1.7,0.3-10.6,0.3
		c-4.3,0-9.5-0.1-15-0.1c9.3-9.2,18.1-18,21.6-21.4c0.6-0.6,1-1,1.3-1.3l0.3-0.3c0.9-1,1.4-2.2,1.4-3.5c0-2.8-2.2-5-5-5
		c-1.4,0-2.6,0.5-3.5,1.4c-1.1,0.9-3.9,3.4-7.9,7C97,64.1,86.7,73.4,78.3,80.6c-8.3-0.2-15.3-0.5-17.8-0.7c-0.4-1-0.7-2-0.9-3
		c2.4,1.3,3.4,1.5,4,1.5c0.3,0,0.5,0,0.8,0c10.6,0,13.6-9.2,14.3-12c1.3-5.3,2.9-16.5,3.1-20.9v-0.9h-0.1c0-0.5-0.2-0.9-0.4-1.3
		c-1.1-2-3.8-2.9-5.9-1.8c-1.2,0.6-2,1.7-2.2,2.9c0,0.1,0,0.1-0.3,2.1c-0.3,2.1-0.6,5.1-0.7,5.4C71,61.1,68.8,66.8,66.3,67h-0.2
		c-1,0-4-1.5-5.6-2.3c0.6-2.9,0.9-5.2,0.7-6s-0.6-1.6-1.2-2.2c-0.2-0.2-0.4-0.4-0.7-0.6c-1.9-1.3-4.7-0.7-6,1.3
		c-0.4,0.6-0.6,1.2-0.6,1.9l-0.1,0.1v0.3c0,0,0,0.1,0,0.2c-1.1-1.1-3.1-2.9-5.8-3.1c4.4-3.2,6.3-8.9,4.5-14.3
		c-1.8-5.1-6.5-8.5-11.9-8.5c-1.4,0-2.8,0.2-4.1,0.7c-6.5,2.3-10,9.4-7.8,16c1.7,4.9,6.2,8.2,11.2,8.5c-2.9,1.5-5.7,3.4-7.6,5.3
		c-5.2,5.5-3.7,13.2-3.3,14.7c0.1,0.3,0.2,0.7,0.4,1.2l-0.1-0.1l0.3,0.5c0.4,0.8,0.9,1.7,1.5,2.4l1,1.6c2.6,4.2,6.8,9.5,12.8,16.2
		c-0.4,0.5-0.7,1.1-0.7,1.8c0,0,0,0.1,0,0.2l-10.2,18.4l-0.4,0.8l4.6,2.5l7.5-13.5l2.8,14.2l4.5-0.9c1.1,15.7-0.8,34.1-1.7,41.3
		c0,0.3-0.1,0.5-0.1,0.6c0,0-0.1,0.6-0.1,0.9c0,2.7,2.2,5,5,5c2,0,3.8-1.2,4.6-3c0.2-0.5,0.4-2.4,1.5-9.9c2.2-14.6,7.4-48.9,8-50.7
		c0.2-0.3,1.8-2.4,15.7-16.4l0.1-0.1c32.9,3.5,39.2,5.5,40.3,6.3c2.8,2.1,13.5,18.4,31.8,48.5l1.5,2.5c0.1,0.2,0.2,0.3,0.4,0.6
		l0.2,0.3c0.9,1.1,2.3,1.7,3.7,1.7c2.7,0,5-2.2,5-5c-0.6,0.2-0.6,0.1-0.6-0.2v-0.3v-0.3c-0.1-0.3-0.1-0.6-0.2-0.8l-0.1-0.3v-0.1
		l-0.1-0.1c0,0,0-0.1-0.1-0.1v-0.1c-0.1-0.1-0.1-0.2-0.2-0.3c-2-3.2-18.8-29.5-22.1-48L150,112l4.9-1.8L150,96.6l13.4,7.7l2.6-4.6
		l-18.6-10.8l-0.5-0.3c-0.1-0.3-0.3-0.5-0.5-0.7c-0.3-0.3-0.6-0.5-1-0.6c1.2-1.4,2.8-3.2,4.5-5.1c1.4-1.5,3-3.2,4.4-4.8
		c0.4-0.5,1.8-1.1,2.2-1.1c5.5-0.4,6.3-0.9,6.5-1c0.8-0.4,1.4-1,1.8-1.7c0.2-0.3,0.3-0.6,0.4-0.9c0.3-1.1,0.2-2.2-0.3-3.3
		c-0.3-0.5-0.6-0.9-0.9-1.2c0.2-0.1,0.3-0.3,0.5-0.6c0.7-1.3,1-5.6-0.9-8.8c-1.4-2.5-4.5-4.9-7.4-6.9c1.4,0.5,2.9,0.8,4.4,0.8
		c1.4,0,2.8-0.3,4.1-0.7c3.2-1.1,5.7-3.4,7.2-6.4S173.6,39.2,172.5,36z M35.7,122.5l-1.4-0.8l8.9-16.1l1.5,0.5L35.7,122.5z
		 M48.1,123.5l-3.4-17.3l1.5-0.4l3.4,17.4L48.1,123.5z M48.1,101.8L48.1,101.8c-0.2-0.4-0.3-0.7-0.4-0.7l-0.2-0.3
		c-0.1-0.1-0.2-0.2-0.3-0.3l14.1-9.9l1.4,0.1l0.3,0.6L48.1,101.8z M65,91.1l-0.3-0.6c0.4,0,0.8,0.1,1.2,0.1
		C65.5,90.8,65.2,91,65,91.1z M141.8,88c-0.1,0.1-0.2,0.2-0.2,0.2l-0.2,0.3c-0.1,0.2-0.2,0.4-0.3,0.6l-15.9-9.8l1.1-1.3l15.7,9.8
		C141.9,87.8,141.9,87.9,141.8,88z M147.2,91.4l16,9.2l-0.8,1.4l-16.2-9.4L147.2,91.4z M145.5,93l0.3-0.1c0.1-0.1,0.2-0.1,0.3-0.2
		l6.3,16.6l-1.5,0.5l-6-16.6l0.3-0.1C145.3,93.1,145.4,93,145.5,93z"/>
</g>
</svg>
