<?xml version="1.0" encoding="utf-8"?>
<!-- Generator: Adobe Illustrator 25.4.1, SVG Export Plug-In . SVG Version: 6.00 Build 0)  -->
<svg version="1.1" id="Layer_1" xmlns="http://www.w3.org/2000/svg" xmlns:xlink="http://www.w3.org/1999/xlink" x="0px" y="0px"
	 viewBox="0 0 200 200" style="enable-background:new 0 0 200 200;" xml:space="preserve">
<g id="athletic_1_">
	<g>
		<path d="M162,97.5c-5,0-9.7-2.7-12.2-7.1c-1.9-3.3-2.4-7.1-1.4-10.7c1-3.6,3.3-6.7,6.6-8.6c2.1-1.2,4.6-1.9,7-1.9
			c5,0,9.7,2.7,12.2,7.1c3.9,6.7,1.6,15.4-5.2,19.3C166.9,96.9,164.4,97.5,162,97.5z M162,71.4c-2.1,0-4.2,0.6-6,1.6
			c-2.8,1.6-4.8,4.2-5.6,7.3c-0.9,3.1-0.4,6.3,1.2,9.1c2.1,3.7,6.1,6,10.5,6c2.1,0,4.2-0.6,6-1.6c5.8-3.3,7.7-10.7,4.4-16.5
			C170.3,73.7,166.3,71.4,162,71.4z"/>
	</g>
	<g>
		<path d="M130.3,186c-3.1,0-5.6-2.5-5.6-5.5c0-0.9,0.5-2.3,0.9-3l0,0c1.4-2.7,4.5-6.8,7.7-11.1c3.7-4.9,9.8-13.1,9.2-14.7
			c-0.9-1.3-4.6-4.8-8.3-8.2c-3-2.8-6.2-5.7-8-7.7c-0.4-0.6-0.9-1.1-1.3-1.6c-0.8-0.9-1.6-1.9-2.4-2.9c-0.1,0-0.2,0-0.2,0l-0.2,1.5
			c-1.5,11.4-6.4,22.5-14.2,32.2l-1.6,2c-4.5,5.5-10.1,12.4-15,15.9c-0.5,0.4-1.1,0.8-1.8,1l-0.1,0.1l-0.3,0c-0.5,0.1-1,0.2-1.4,0.2
			c-3.1,0-5.6-2.5-5.6-5.6c0-0.5,0.1-0.9,0.2-1.3l0.1-0.3c0.1-0.3,0.2-0.5,0.3-0.8v-0.4l0.3-0.2c0.1-0.2,0.2-0.4,0.4-0.6
			c5.2-7.6,17.7-25.7,19.4-28.4c0.1-0.2,0.2-0.4,0.4-0.7c1.1-1.9,2.6-4.5,4.9-19.1c0.1-0.4,0.2-0.9,0.3-1.6
			c0.6-3.8,1.9-10.9,4.6-13.6L131.8,89c-1.6-6.1-3.6-13.3-4.3-14.7c-3.4-4.7-16.6-5.1-20.6-5.1c-1.4,0-2.4,0.1-2.8,0.1l-0.3,0
			c-0.8,0.1-1.7,0.1-2.6-0.2c-1.2-0.5-2.2-1.4-2.7-2.6c-0.5-1.2-0.5-2.5-0.1-3.7c0.5-1.3,1.5-2.2,2.7-2.7c0.2-0.1,1.2-0.6,7.5-0.6
			c4.7,0,11.7,0.3,16.6,0.9c6.8,0.9,11.8,5.8,15.1,15.1c0.1,0.4,1,2.8,1.9,5.2c0.7,1.8,1.5,3.9,2.1,5.6c2.3,0.7,4.4,1.8,6,3.3
			c2.2,2.1,3.6,5.4,3.8,8.9c0.2,3.6-0.9,6.9-3,9.1l-1,1c0.5,6.4,4.1,14.2,18.7,16.2c1,0.1,2.5,0.2,4.2,0.2c1.3,0,2.3,0,2.6,0l0,0
			c1.3,0,2.4,0.4,3.3,1.2c0.1,0.1,0.2,0.2,0.3,0.2c0.3,0.2,0.5,0.5,0.7,0.8l0.1,0.2c0.1,0.1,0.1,0.3,0.1,0.4
			c0.3,0.5,0.5,1.3,0.5,2.1c0,2.4-1.8,4.5-4.2,4.8l0,0c-2.1,0.6-4.4,0.7-6.1,0.7c-2.4,0-5-0.2-7.2-0.7c-13-1.8-19.5-10-22.6-17
			l-6.3,5.9c7,5.2,13,11.8,17.4,19.1c3.4,5.7,4.7,10.5,3.7,14.1c-2.4,8.5-18.4,25.6-21.2,27.8c-0.4,0.4-1,0.9-1.7,1.2
			C131.8,185.8,131,186,130.3,186z M127.4,178.4c-0.2,0.4-0.6,1.5-0.6,2c0,1.9,1.6,3.5,3.5,3.5c0.5,0,1-0.1,1.4-0.3
			c0.4-0.2,0.8-0.5,1.1-0.8c2.8-2.2,18.4-18.9,20.6-26.8c0.8-3-0.4-7.4-3.5-12.5c-4.5-7.4-10.6-14-17.8-19.3l-1-0.7l10.2-9.6
			l0.6,1.4c2.7,6.8,8.7,15.3,21.7,17.1c2.1,0.4,4.6,0.6,6.8,0.6c2.3,0,4.2-0.2,5.6-0.7l0.2-0.1l0.1,0.1c1.3-0.2,2.3-1.4,2.3-2.8
			c0-0.4-0.1-0.9-0.4-1.3l-0.1-0.3c-0.1-0.2-0.2-0.3-0.4-0.4c-0.5-0.4-1.2-0.8-2-0.8c-0.5,0-1.5,0-2.8,0c-1.8,0-3.3-0.1-4.5-0.2
			c-16.3-2.2-20.2-11.3-20.5-18.6l0-0.5l1.7-1.6c1.7-1.7,2.6-4.5,2.4-7.5c-0.2-3-1.3-5.8-3.2-7.5c-1.4-1.3-3.4-2.4-5.6-2.9l-0.5-0.1
			l-0.2-0.5c-0.6-1.8-1.5-4-2.3-6.1c-1.3-3.5-1.9-5-1.9-5.2c-3-8.4-7.4-12.9-13.4-13.7c-4.8-0.6-11.7-0.9-16.4-0.9
			c-4.6,0-6.4,0.2-6.7,0.4c-0.8,0.3-1.3,0.9-1.6,1.6c-0.3,0.7-0.2,1.5,0.1,2.1c0.3,0.7,0.9,1.2,1.6,1.5c0.5,0.2,1,0.2,1.5,0.1
			l0.3-0.1l0.1,0c0.7-0.1,1.9-0.1,2.9-0.1c6.7,0,18.6,0.8,22.4,6.1c1,2.1,3.4,11.1,4.6,15.7l0.1,0.6l-0.4,0.4l0,0L114.5,113
			c-2.3,2.3-3.5,9.5-4.1,12.6c-0.1,0.7-0.2,1.3-0.3,1.6c-2.3,14.9-4,17.7-5.2,19.8l-0.4,0.7c-1.8,2.9-14.3,21-19.6,28.6
			c-0.1,0.2-0.2,0.3-0.3,0.5l-0.1,0.2c-0.1,0.2-0.2,0.4-0.3,0.6c-0.1,0.4-0.1,0.7-0.1,1c0,2,1.6,3.6,3.5,3.6c0.2,0,0.5-0.1,0.8-0.1
			l0.2-0.1c0.5-0.1,1-0.4,1.3-0.7c4.8-3.4,10.3-10.1,14.7-15.6l1.6-2c7.7-9.4,12.4-20.1,13.8-31.1l0.4-3.2h0.9c0.5,0,1-0.1,1.5-0.2
			l0.7-0.1l0.4,0.6c0.7,1.1,1.7,2.3,2.6,3.3c0.5,0.6,1,1.1,1.3,1.6c1.6,1.8,4.8,4.7,7.8,7.5c3.9,3.6,7.6,7,8.6,8.6
			c1.5,2.2-1.7,6.8-9.4,17C131.7,171.8,128.8,175.8,127.4,178.4z"/>
	</g>
</g>
<g id="athletic_00000041977622176389843780000001433036273924378752_">
	<g>
		<path d="M99.1,52c-5,0-9.7-2.7-12.2-7.1c-1.9-3.3-2.4-7.1-1.4-10.7c1-3.6,3.3-6.7,6.6-8.6c2.1-1.2,4.6-1.9,7-1.9
			c5,0,9.7,2.7,12.2,7.1c3.9,6.7,1.6,15.4-5.2,19.3C104,51.4,101.6,52,99.1,52z M99.1,25.9c-2.1,0-4.2,0.6-6,1.6
			c-2.8,1.6-4.8,4.2-5.6,7.3c-0.9,3.1-0.4,6.3,1.2,9.1c2.1,3.7,6.1,6,10.5,6c2.1,0,4.2-0.6,6-1.6c5.8-3.3,7.7-10.7,4.4-16.5
			C107.4,28.2,103.4,25.9,99.1,25.9z"/>
	</g>
	<g>
		<path d="M67.4,140.5c-3.1,0-5.6-2.5-5.6-5.5c0-0.9,0.5-2.3,0.9-3l0,0c1.4-2.7,4.5-6.8,7.7-11.1c3.7-4.9,9.8-13.1,9.2-14.7
			c-0.9-1.3-4.6-4.8-8.3-8.2c-3-2.8-6.2-5.7-8-7.7c-0.4-0.6-0.9-1.1-1.3-1.6c-0.8-0.9-1.6-1.9-2.4-2.9c-0.1,0-0.2,0-0.2,0l-0.2,1.5
			c-1.5,11.4-6.4,22.5-14.2,32.2l-1.6,2c-4.5,5.5-10.1,12.4-15,15.9c-0.5,0.4-1.1,0.8-1.8,1l-0.1,0.1l-0.3,0c-0.5,0.1-1,0.2-1.4,0.2
			c-3.1,0-5.6-2.5-5.6-5.6c0-0.5,0.1-0.9,0.2-1.3l0.1-0.3c0.1-0.3,0.2-0.5,0.3-0.8v-0.4l0.3-0.2c0.1-0.2,0.2-0.4,0.4-0.6
			c5.2-7.6,17.7-25.7,19.4-28.4c0.1-0.2,0.2-0.4,0.4-0.7c1.1-1.9,2.6-4.5,4.9-19.1c0.1-0.4,0.2-0.9,0.3-1.6
			c0.6-3.8,1.9-10.9,4.6-13.6L69,43.5c-1.6-6.1-3.6-13.3-4.3-14.7c-3.4-4.7-16.6-5.1-20.6-5.1c-1.4,0-2.4,0.1-2.8,0.1l-0.3,0
			c-0.8,0.1-1.7,0.1-2.6-0.2c-1.2-0.5-2.2-1.4-2.7-2.6c-0.5-1.2-0.5-2.5-0.1-3.7c0.5-1.3,1.5-2.2,2.7-2.7c0.2-0.1,1.2-0.6,7.5-0.6
			c4.7,0,11.7,0.3,16.6,0.9c6.8,0.9,11.8,5.8,15.1,15.1c0.1,0.4,1,2.8,1.9,5.2c0.7,1.8,1.5,3.9,2.1,5.6c2.3,0.7,4.4,1.8,6,3.3
			c2.2,2.1,3.6,5.4,3.8,8.9c0.2,3.6-0.9,6.9-3,9.1l-1,1c0.5,6.4,4.1,14.2,18.7,16.2c1,0.1,2.5,0.2,4.2,0.2c1.3,0,2.3,0,2.6,0l0,0
			c1.3,0,2.4,0.4,3.3,1.2c0.1,0.1,0.2,0.2,0.3,0.2c0.3,0.2,0.5,0.5,0.7,0.8l0.1,0.2c0.1,0.1,0.1,0.3,0.1,0.4
			c0.3,0.5,0.5,1.3,0.5,2.1c0,2.4-1.8,4.5-4.2,4.8l0,0c-2.1,0.6-4.4,0.7-6.1,0.7c-2.4,0-5-0.2-7.2-0.7c-13-1.8-19.5-10-22.6-17
			l-6.3,5.9c7,5.2,13,11.8,17.4,19.1c3.4,5.7,4.7,10.5,3.7,14.1c-2.4,8.5-18.4,25.6-21.2,27.8c-0.4,0.4-1,0.9-1.7,1.2
			C68.9,140.4,68.2,140.5,67.4,140.5z M64.5,133c-0.2,0.4-0.6,1.5-0.6,2c0,1.9,1.6,3.5,3.5,3.5c0.5,0,1-0.1,1.4-0.3
			c0.4-0.2,0.8-0.5,1.1-0.8c2.8-2.2,18.4-18.9,20.6-26.8c0.8-3-0.4-7.4-3.5-12.5c-4.5-7.4-10.6-14-17.8-19.3l-1-0.7l10.2-9.6
			l0.6,1.4c2.7,6.8,8.7,15.3,21.7,17.1c2.1,0.4,4.6,0.6,6.8,0.6c2.3,0,4.2-0.2,5.6-0.7l0.2-0.1l0.1,0.1c1.3-0.2,2.3-1.4,2.3-2.8
			c0-0.4-0.1-0.9-0.4-1.3l-0.1-0.3c-0.1-0.2-0.2-0.3-0.4-0.4c-0.5-0.4-1.2-0.8-2-0.8c-0.5,0-1.5,0-2.8,0c-1.8,0-3.3-0.1-4.5-0.2
			C89.5,79,85.6,69.9,85.3,62.7l0-0.5l1.7-1.6c1.7-1.7,2.6-4.5,2.4-7.5c-0.2-3-1.3-5.8-3.2-7.5c-1.4-1.3-3.4-2.4-5.6-2.9l-0.5-0.1
			L79.9,42c-0.6-1.8-1.5-4-2.3-6.1c-1.3-3.5-1.9-5-1.9-5.2c-3-8.4-7.4-12.9-13.4-13.7c-4.8-0.6-11.7-0.9-16.4-0.9
			c-4.6,0-6.4,0.2-6.7,0.4c-0.8,0.3-1.3,0.9-1.6,1.6c-0.3,0.7-0.2,1.5,0.1,2.1c0.3,0.7,0.9,1.2,1.6,1.5c0.5,0.2,1,0.2,1.5,0.1
			l0.3-0.1l0.1,0c0.7-0.1,1.9-0.1,2.9-0.1c6.7,0,18.6,0.8,22.4,6.1c1,2.1,3.4,11.1,4.6,15.7l0.1,0.6l-0.4,0.4l0,0L51.6,67.6
			c-2.3,2.3-3.5,9.5-4.1,12.6c-0.1,0.7-0.2,1.3-0.3,1.6c-2.3,14.9-4,17.7-5.2,19.8l-0.4,0.7c-1.8,2.9-14.3,21-19.6,28.6
			c-0.1,0.2-0.2,0.3-0.3,0.5l-0.1,0.2c-0.1,0.2-0.2,0.4-0.3,0.6c-0.1,0.4-0.1,0.7-0.1,1c0,2,1.6,3.6,3.5,3.6c0.2,0,0.5-0.1,0.8-0.1
			l0.2-0.1c0.5-0.1,1-0.4,1.3-0.7c4.8-3.4,10.3-10.1,14.7-15.6l1.6-2c7.7-9.4,12.4-20.1,13.8-31.1l0.4-3.2h0.9c0.5,0,1-0.1,1.5-0.2
			l0.7-0.1l0.4,0.6c0.7,1.1,1.7,2.3,2.6,3.3c0.5,0.6,1,1.1,1.3,1.6c1.6,1.8,4.8,4.7,7.8,7.5c3.9,3.6,7.6,7,8.6,8.6
			c1.5,2.2-1.7,6.8-9.4,17C68.9,126.4,65.9,130.4,64.5,133z"/>
	</g>
</g>
</svg>
