<?xml version="1.0" encoding="utf-8"?>
<!-- Generator: Adobe Illustrator 25.4.1, SVG Export Plug-In . SVG Version: 6.00 Build 0)  -->
<svg version="1.1" id="Layer_1" xmlns="http://www.w3.org/2000/svg" xmlns:xlink="http://www.w3.org/1999/xlink" x="0px" y="0px"
	 viewBox="0 0 200 200" style="enable-background:new 0 0 200 200;" xml:space="preserve">
<g transform="translate(0.000000,512.000000) scale(0.100000,-0.100000)">
	<path d="M538.5,4773.1c-24.2-6.4-41.8-22.9-51.3-47.9c-4.1-10.8-4.9-19.6-4.9-54.1v-41.2h-61.9c-64.7,0-74.2-1.5-78.4-11.6
		c-0.8-2.3-1.5-125.3-1.5-273.2c0-252.1,0.3-269.1,4.6-274.2c2.3-2.8,8-6.2,12.6-7c6.7-1.3,9.5-0.3,14.7,4.9l6.7,6.7v152.3v152.1
		h579.6h579.9l0.8-59c0.8-53.9,1.3-59.5,5.7-64.4c6.2-7,20.4-7.2,27.1-0.5c4.6,4.6,4.9,12.6,6.7,142.3c1,75.8,1.3,155.9,0.8,178.4
		l-0.8,41l-7.2,6.2c-7.2,6.2-7.5,6.2-70.1,6.2H1439l-1,44.6c-0.8,38.7-1.5,45.9-6.4,56.2c-7,15.5-23.7,32.2-39.2,39.2
		c-17,7.7-46.1,7.7-62.4-0.3c-16.5-8-30.2-21.9-38.1-38.9c-6.2-13.4-6.7-17.5-7.5-57.5l-1-43.3H960.4H637.4l-1,43.3
		c-1,37.6-1.8,44.6-7,55.9c-9.8,22.2-29.6,38.9-52.3,44.6C562.2,4777.5,553.9,4777.3,538.5,4773.1z M573.5,4734.5
		c4.6-2.1,11.9-8,16-13.4l7.5-9.5v-86.6c0-77.3-0.5-87.4-4.4-94.8c-14.4-26.3-51.5-26.8-66.2-0.8c-5.2,9.3-5.4,13.1-5.4,94.6
		c0,96.9,0.3,97.9,20.6,108.5C554.7,4739.1,561.7,4739.4,573.5,4734.5z M1378.2,4732.7c8-3.9,12.4-8.2,16.2-16.2
		c5.2-10.3,5.4-15.5,5.4-92.5c0-91-0.5-93.8-16.5-106.2c-7.2-5.4-12.4-7-22.2-7.2c-13.9-0.3-22.4,4.4-32,17.3
		c-5.2,6.7-5.4,11.1-6.2,86.1c-0.5,43.6,0,84,0.8,89.9c2.6,18,19.8,34,37.1,34.3C1364.5,4738.1,1372.2,4735.8,1378.2,4732.7z
		 M482.3,4562.8c0-21.4,1.3-31.4,4.9-41c20.4-53.6,87.4-67.8,127.1-26.8c15.7,16,20.4,30.4,21.9,65.5l1.5,30.7h322.7h322.9l1-30.2
		c1.3-35.6,6.2-49.7,23.2-67c36.9-37.6,100-26.3,123.7,22.2c4.9,9.8,5.9,17,6.7,43.6l1,31.4h50h50v-86.3v-86.3l-579.1,0.5
		l-579.4,0.8l-0.8,85.8l-0.5,85.6h51.5h51.5V4562.8z"/>
	<path d="M546.7,4286.3c-11.9-6.2-12.9-11.6-12.9-79.9c0-66.8,1.3-76,11.6-80.2c2.3-0.8,34.8-1.5,72.2-1.5c62.9,0,68,0.3,73.7,4.9
		l6.2,4.9l0.8,69.6l0.8,69.6l-6.4,7.2l-6.2,7.5l-66.8,0.8C569.7,4289.6,551.6,4288.9,546.7,4286.3z M660.1,4205.9v-42.5h-43.8h-43.8
		v42.5v42.5h43.8h43.8V4205.9z"/>
	<path d="M776.9,4287.1c-13.4-5.4-13.9-9.5-13.1-83.8c0.8-68.8,0.8-68.8,7-73.7c5.7-4.6,10.8-4.9,75.3-4.9c65.7,0,69.6,0.3,74.5,5.2
		c2.8,2.8,5.7,7.7,6.4,10.8c0.8,3.4,1.3,35.3,0.8,70.9c-0.8,63.7-0.8,65.2-6.7,70.9c-5.7,5.9-7,5.9-72.2,6.4
		C812.4,4289.1,780,4288.3,776.9,4287.1z M889.5,4205.9v-42.5h-43.8h-43.8v42.5v42.5h43.8h43.8V4205.9z"/>
	<path d="M1006.5,4287.1c-13.4-5.4-13.9-9-13.9-82v-67.8l6.4-6.2l6.2-6.4h69.8c66,0,69.8,0.3,74.7,5.2c2.8,2.8,5.7,7.7,6.4,10.8
		c0.8,3.4,1.3,35.3,0.8,70.9c-0.8,63.7-0.8,65.2-6.7,70.9c-5.7,5.9-7,5.9-72.2,6.4C1041.8,4289.1,1009.3,4288.3,1006.5,4287.1z
		 M1118.9,4205.9v-42.5h-43.8h-43.8v42.5v42.5h43.8h43.8V4205.9z"/>
	<path d="M1234.4,4286.8c-3.6-1.5-7.7-4.6-9-7c-1-2.3-2.6-32-3.4-65.7l-1.3-61.6l-24.5-8.2c-42.8-14.7-80.7-36.6-117-67.5
		c-19.8-17-25.5-26.5-21.6-37.4c2.6-7.7,14.4-13.9,22.2-11.6c2.8,1,13.1,8.8,22.7,17.3c50.8,44.8,110.3,70.6,179.4,77.6
		c54.9,5.7,110.8-4.6,163.1-29.9c82.7-39.9,143-113.9,166.8-204.6c7.2-27.6,8-33.8,8-72.7c0.3-45.6-2.8-66.2-15.5-103.1
		c-25.3-73.7-79.1-136.6-150.5-175c-35.8-19.3-71.9-29.6-118.3-34c-90.2-8.5-179.4,24.2-245.1,90.2c-34.8,34.5-59.3,73.5-74.5,117.5
		c-27.8,80.2-22.7,161.6,15.5,240.7c16.5,33.8,17.3,40.7,7,47.9c-14.4,10.1-25.8,2.1-42-30.2c-20.4-40.5-34-93.3-36.3-141.2
		c-2.1-41.5,3.4-78.4,18.8-130.7l1.5-5.9H679.7H379.2v159.8v160.1l-6.4,6.2c-8,8.2-17.8,8.2-25.8,0l-6.4-6.2v-172.4
		c0-170.6,0-172.7,5.4-179.4l5.2-6.7h323.2h323.2l9.3-16c49.7-85.3,131.4-144.1,232-167.3c36.1-8.2,101-8.2,139.7,0
		c106.2,22.4,190.7,86.3,242.5,183.2c35.8,66.8,47.9,159.5,30.9,234.5c-9.8,43.6-31.7,92.5-57.2,128.1l-17,23.7v80.2
		c0,76.5-0.3,80.2-5.2,85.1c-7,7-20.9,6.7-27.3-0.3c-4.4-4.9-4.9-10.6-5.7-65.7l-0.8-60.3l-18,13.9c-33.2,25.3-77.8,47.4-116.8,58
		l-15.7,4.1l-1.3,61.1c-1.3,59.3-1.5,61.3-7.2,67c-5.7,5.9-7,5.9-72.2,6.4C1268.1,4289.1,1238.5,4288.3,1234.4,4286.8z
		 M1348.3,4205.9v-42.5h-43.8h-43.8v42.5v42.5h43.8h43.8V4205.9z"/>
	<path d="M540,4013.6c-4.6-5.2-4.9-10.3-4.9-76.3v-70.9l6.2-4.9c5.7-4.6,10.8-4.9,75-4.9s69.3,0.3,75,4.9l6.2,4.9v70.9
		c0,66-0.3,71.1-4.9,76.3c-4.9,5.2-7,5.4-76.3,5.4S544.9,4018.8,540,4013.6z M660.1,3937.8v-42.5h-43.8h-43.8v42.5v42.5h43.8h43.8
		V3937.8z"/>
	<path d="M768.4,4012.1c-5.2-6.7-5.4-9-4.6-76.3l0.8-69.3l6.2-4.9c5.7-4.6,10.8-4.9,75-4.9s69.3,0.3,75,4.9l6.2,4.9v70.9
		c0,66-0.3,71.1-4.9,76.3c-4.9,5.2-7,5.4-76.5,5.4h-71.7L768.4,4012.1z M889.5,3937.8v-42.5h-43.8h-43.8v42.5v42.5h43.8h43.8V3937.8
		z"/>
	<path d="M1426.9,3963.6c-5.7-2.1-10.8-3.9-11.6-3.9c-0.5,0-34.8-33.5-76-74.7l-74.7-74.7l-27.1,27.3c-32,32.2-41.8,37.9-63.1,37.9
		c-23.7,0-43-12.1-54.1-34c-5.7-11.1-5.7-34.5-0.3-47.9c2.8-6.4,21.9-27.6,54.9-61.1c55.9-56.2,66.8-63.9,89.7-63.9
		c25,0,30.7,4.6,135.6,110.1c104.4,104.9,103.9,104.1,103.6,131.2c-0.3,23.5-16.5,46.1-38.9,53.6
		C1450.3,3968.2,1440.3,3968.5,1426.9,3963.6z M1459.9,3921.3c2.6-2.6,4.9-8.2,4.9-12.9c0.3-7.7-7.7-16.5-96.1-104.9
		c-89.4-89.7-96.9-96.4-105.2-96.4c-8.2,0-13.4,4.4-58.8,49.7c-48.2,48.2-49.7,50-49.7,60.1c0,15.5,11.6,24,25.3,18.8
		c3.9-1.5,22.7-18.3,42-37.4c28.6-28.4,36.3-34.5,42.3-34.5c6.4,0,19.6,12.1,87.6,79.6c43.8,43.8,82.2,80.9,85.1,82.5
		C1443.6,3929.3,1453.7,3927.5,1459.9,3921.3z"/>
</g>
</svg>
